<svg xmlns="http://www.w3.org/2000/svg" xmlns:xlink="http://www.w3.org/1999/xlink" width="105" height="105" viewBox="0 0 105 105">
  <defs>
    <clipPath id="clip-path">
      <circle id="Elipse_74" data-name="Elipse 74" cx="52.5" cy="52.5" r="52.5" transform="translate(493 269)" fill="#d5d5d5"/>
    </clipPath>
  </defs>
  <g id="avatar-padrao" transform="translate(-493 -269)" clip-path="url(#clip-path)">
    <circle id="Elipse_67" data-name="Elipse 67" cx="52.5" cy="52.5" r="52.5" transform="translate(493 269)" fill="#d5d5d5"/>
    <g id="Grupo_310" data-name="Grupo 310" transform="translate(-488.543 -901.5)">
      <ellipse id="Elipse_68" data-name="Elipse 68" cx="28.5" cy="28" rx="28.5" ry="28" transform="translate(1005.543 1190.5)" fill="#f4f4f4"/>
      <ellipse id="Elipse_69" data-name="Elipse 69" cx="48.5" cy="39.5" rx="48.5" ry="39.5" transform="translate(985.543 1235.5)" fill="#f4f4f4"/>
      <path id="União_3" data-name="União 3" d="M31.889,112.258a45.856,45.856,0,0,1-7.8-2.247,43.126,43.126,0,0,1-7.039-3.5,39.51,39.51,0,0,1-6.083-4.627,35.97,35.97,0,0,1-4.931-5.636A32.694,32.694,0,0,1,1.492,67.565a36.063,36.063,0,0,1,2.95-6.883A39.459,39.459,0,0,1,8.8,54.4a42.867,42.867,0,0,1,5.613-5.5,45.775,45.775,0,0,1,6.723-4.547,48.956,48.956,0,0,1,15.931-5.49A19.728,19.728,0,0,1,22.477,27.219,19.491,19.491,0,0,1,26.7,5.739,19.756,19.756,0,0,1,40.658,0a19.909,19.909,0,0,1,5.766.85A19.755,19.755,0,0,0,36.408,7.828a19.467,19.467,0,0,0,0,23.531,19.768,19.768,0,0,0,9.6,6.848l.109,0-.05.017q.178.058.357.112a19.805,19.805,0,0,1-2.005.493,46.839,46.839,0,0,0-11.1,6.116A42.21,42.21,0,0,0,23.8,54.732a36.258,36.258,0,0,0-5.447,11.894,32.628,32.628,0,0,0,4.01,25.31,36.257,36.257,0,0,0,8.855,9.629,42.258,42.258,0,0,0,12.078,6.363,47.116,47.116,0,0,0,14.253,2.455,50.689,50.689,0,0,1-16.437,2.761A48.16,48.16,0,0,1,31.889,112.258Z" transform="translate(994.061 1199.662)" fill="#fff"/>
    </g>
  </g>
</svg>
