<svg id="boleto" xmlns="http://www.w3.org/2000/svg" width="75" height="75" viewBox="0 0 75 75">
  <g id="Grupo_505" data-name="Grupo 505">
    <circle id="Elipse_84" data-name="Elipse 84" cx="37.5" cy="37.5" r="37.5" fill="#f9efff"/>
    <rect id="Retângulo_341" data-name="Retângulo 341" width="58" height="43" transform="translate(10 16)" fill="#fff"/>
    <g id="Grupo_460" data-name="Grupo 460" transform="translate(6.355 12.71)">
      <g id="Grupo_458" data-name="Grupo 458" transform="translate(0 0)">
        <g id="varredura" transform="translate(0 0)">
          <g id="Grupo_433" data-name="Grupo 433">
            <g id="Grupo_432" data-name="Grupo 432">
              <path id="Caminho_190" data-name="Caminho 190" d="M10.439,48H2.088A2.089,2.089,0,0,0,0,50.088v8.351a2.088,2.088,0,1,0,4.176,0V52.176h6.264a2.088,2.088,0,1,0,0-4.176Z" transform="translate(0 -48)" fill="#9344c4"/>
            </g>
          </g>
          <g id="Grupo_475" data-name="Grupo 475" transform="translate(0 36.539)">
            <g id="Grupo_432-2" data-name="Grupo 432">
              <path id="Caminho_190-2" data-name="Caminho 190" d="M10.439,60.527H2.088A2.089,2.089,0,0,1,0,58.439V50.088a2.088,2.088,0,0,1,4.176,0v6.264h6.264a2.088,2.088,0,1,1,0,4.176Z" transform="translate(0 -48)" fill="#9344c4"/>
            </g>
          </g>
          <g id="Grupo_437" data-name="Grupo 437" transform="translate(50.109)">
            <g id="Grupo_436" data-name="Grupo 436">
              <path id="Caminho_192" data-name="Caminho 192" d="M394.439,48h-8.351a2.088,2.088,0,0,0,0,4.176h6.264v6.264a2.088,2.088,0,1,0,4.176,0V50.088A2.089,2.089,0,0,0,394.439,48Z" transform="translate(-384 -48)" fill="#9344c4"/>
            </g>
          </g>
          <g id="Grupo_476" data-name="Grupo 476" transform="translate(50.109 36.539)">
            <g id="Grupo_436-2" data-name="Grupo 436">
              <path id="Caminho_192-2" data-name="Caminho 192" d="M394.439,60.527h-8.351a2.088,2.088,0,1,1,0-4.176h6.264V50.088a2.088,2.088,0,1,1,4.176,0v8.351A2.089,2.089,0,0,1,394.439,60.527Z" transform="translate(-384 -48)" fill="#9344c4"/>
            </g>
          </g>
          <g id="Grupo_441" data-name="Grupo 441" transform="translate(9.077 9.315)">
            <g id="Grupo_440" data-name="Grupo 440" transform="translate(0 0)">
              <rect id="Retângulo_320" data-name="Retângulo 320" width="3.972" height="31.773" fill="#9344c4"/>
            </g>
          </g>
          <g id="Grupo_443" data-name="Grupo 443" transform="translate(15.431 9.315)">
            <g id="Grupo_442" data-name="Grupo 442" transform="translate(0 0)">
              <rect id="Retângulo_321" data-name="Retângulo 321" width="4.766" height="24.624" fill="#9344c4"/>
            </g>
          </g>
          <g id="Grupo_445" data-name="Grupo 445" transform="translate(24.963 9.315)">
            <g id="Grupo_444" data-name="Grupo 444" transform="translate(0 0)">
              <rect id="Retângulo_322" data-name="Retângulo 322" width="3.972" height="24.624" fill="#9344c4"/>
            </g>
          </g>
          <g id="Grupo_447" data-name="Grupo 447" transform="translate(33.701 9.315)">
            <g id="Grupo_446" data-name="Grupo 446" transform="translate(0 0)">
              <rect id="Retângulo_323" data-name="Retângulo 323" width="3.972" height="31.773" fill="#9344c4"/>
            </g>
          </g>
          <g id="Grupo_449" data-name="Grupo 449" transform="translate(42.439 9.315)">
            <g id="Grupo_448" data-name="Grupo 448" transform="translate(0 0)">
              <rect id="Retângulo_324" data-name="Retângulo 324" width="4.766" height="24.624" fill="#9344c4"/>
            </g>
          </g>
          <g id="Grupo_451" data-name="Grupo 451" transform="translate(49.588 9.315)">
            <g id="Grupo_450" data-name="Grupo 450" transform="translate(0 0)">
              <rect id="Retângulo_325" data-name="Retângulo 325" width="3.972" height="31.773" fill="#9344c4"/>
            </g>
          </g>
          <g id="Grupo_453" data-name="Grupo 453" transform="translate(15.431 38.706)">
            <g id="Grupo_452" data-name="Grupo 452" transform="translate(0 0)">
              <rect id="Retângulo_326" data-name="Retângulo 326" width="4.766" height="2.383" fill="#9344c4"/>
            </g>
          </g>
          <g id="Grupo_455" data-name="Grupo 455" transform="translate(24.963 38.706)">
            <g id="Grupo_454" data-name="Grupo 454" transform="translate(0 0)">
              <rect id="Retângulo_327" data-name="Retângulo 327" width="3.972" height="2.383" fill="#9344c4"/>
            </g>
          </g>
          <g id="Grupo_457" data-name="Grupo 457" transform="translate(42.439 38.706)">
            <g id="Grupo_456" data-name="Grupo 456" transform="translate(0 0)">
              <rect id="Retângulo_328" data-name="Retângulo 328" width="4.766" height="2.383" fill="#9344c4"/>
            </g>
          </g>
        </g>
      </g>
    </g>
  </g>
</svg>
