<svg id="brinde" xmlns="http://www.w3.org/2000/svg" width="94" height="94" viewBox="0 0 94 94">
  <circle id="Elipse_90" data-name="Elipse 90" cx="47" cy="47" r="47" fill="#f9efff"/>
  <g id="Grupo_523" data-name="Grupo 523" transform="translate(-1495 -561)">
    <path id="União_8" data-name="União 8" d="M4108-20874v-30h-22v-9h52v9h-20v30Z" transform="translate(-2570 21508)" fill="#fff"/>
    <g id="gift" transform="translate(1514 580)">
      <g id="Grupo_522" data-name="Grupo 522" transform="translate(0 0)">
        <path id="Caminho_209" data-name="Caminho 209" d="M51.078,13.125H44.4A8.2,8.2,0,0,0,37.844,0a7.363,7.363,0,0,0-6.323,3.072A31.852,31.852,0,0,0,28,10.367a31.849,31.849,0,0,0-3.521-7.3A7.363,7.363,0,0,0,18.156,0,8.2,8.2,0,0,0,11.6,13.125H4.922A4.927,4.927,0,0,0,0,18.047v3.281a4.93,4.93,0,0,0,3.281,4.64v25.11A4.927,4.927,0,0,0,8.2,56H47.8a4.927,4.927,0,0,0,4.922-4.922V25.968A4.93,4.93,0,0,0,56,21.328V18.047A4.927,4.927,0,0,0,51.078,13.125Zm-20.067-1.45C33.525,5.3,34.48,3.281,37.844,3.281a4.922,4.922,0,0,1,0,9.844H30.438C30.639,12.62,30.83,12.134,31.012,11.675ZM18.156,3.281c3.363,0,4.319,2.017,6.832,8.393.181.46.373.946.574,1.45H18.156a4.922,4.922,0,1,1,0-9.844Zm3.281,49.438H8.2a1.642,1.642,0,0,1-1.641-1.641V26.25H21.438Zm0-29.75H4.922a1.642,1.642,0,0,1-1.641-1.641V18.047a1.642,1.642,0,0,1,1.641-1.641H21.438Zm9.844,29.75H24.719V16.406h6.563Zm18.156-1.641A1.642,1.642,0,0,1,47.8,52.719H34.563V26.25H49.438Zm3.281-29.75a1.642,1.642,0,0,1-1.641,1.641H34.563V16.406H51.078a1.642,1.642,0,0,1,1.641,1.641Z" transform="translate(0 0)" fill="#9344c4"/>
      </g>
    </g>
  </g>
</svg>
