<svg id="checkout" xmlns="http://www.w3.org/2000/svg" width="75" height="75" viewBox="0 0 75 75">
  <circle id="Elipse_88" data-name="Elipse 88" cx="37.5" cy="37.5" r="37.5" fill="#f9efff"/>
  <path id="Caminho_205" data-name="Caminho 205" d="M26.694,34.286,28.63,50.649,59.366,47.8l2.583-13.515Z" transform="translate(-5.49 -7.051)" fill="#fff"/>
  <path id="buy" d="M42.05,28.656H7.763l-.51-5.678a1.8,1.8,0,0,0-1.794-1.64H1.8a1.8,1.8,0,0,0,0,3.6H3.813c1.1,12.253-1.743-19.417,2.071,23.076A6.928,6.928,0,0,0,8.478,52.71a5.458,5.458,0,1,0,9.433,1.5h9.857a5.46,5.46,0,1,0,5.134-3.6H12.79a3.344,3.344,0,0,1-3.075-2.028L38.5,46.89a1.8,1.8,0,0,0,1.641-1.361L43.8,30.893a1.8,1.8,0,0,0-1.747-2.238ZM12.778,57.928a1.858,1.858,0,1,1,1.858-1.858A1.86,1.86,0,0,1,12.778,57.928Zm20.124,0A1.858,1.858,0,1,1,34.76,56.07,1.86,1.86,0,0,1,32.9,57.928Zm4.062-14.555L9.231,45,8.087,32.257H39.743Z" transform="translate(15.147 -3.835)" fill="#9344c4"/>
</svg>
