<svg xmlns="http://www.w3.org/2000/svg" width="108" height="108" viewBox="0 0 108 108">
  <g id="conquista-prod" transform="translate(-600.718 -1034.718)">
    <circle id="Elipse_194" data-name="Elipse 194" cx="39.531" cy="39.531" r="39.531" transform="translate(640.249 1034.718) rotate(30)" fill="#f9efff"/>
    <circle id="Elipse_195" data-name="Elipse 195" cx="31.625" cy="31.625" r="31.625" transform="translate(642.896 1045.946) rotate(30)" fill="#9344c4"/>
    <path id="Caminho_2046" data-name="Caminho 2046" d="M86.9,59.538a10.268,10.268,0,0,0-8.351-3.8H78.5c.049-.692.1-1.384.148-2.125a2.843,2.843,0,0,0-2.421-2.915,158.853,158.853,0,0,0-44.769-.148,2.8,2.8,0,0,0-2.421,2.915c.049.791.1,1.581.148,2.322a10.266,10.266,0,0,0-7.165,3.755,11.689,11.689,0,0,0-1.878,9.883c1.68,7.214,8.746,13.045,15.812,13.045a11.278,11.278,0,0,0,5.04-1.137,29.749,29.749,0,0,0,9.141,6.177l.247,4H39.067L40.3,95.264c.2.544.692,1.186,1.235,1.186H66.146c.544,0,1.087-.642,1.235-1.186l1.235-3.755H57.3l.247-3.9a31.23,31.23,0,0,0,9.685-6.77,11.114,11.114,0,0,0,5.781,1.581c7.017,0,14.132-5.831,15.812-13.045A11.463,11.463,0,0,0,86.9,59.538Zm-9.141,1.631a5.115,5.115,0,0,1,4.1,1.927,6,6,0,0,1,.939,5.287c-.988,4.3-5.188,7.807-9.339,7.807a6.6,6.6,0,0,1-1.977-.3A39.669,39.669,0,0,0,77.758,61.169ZM26.615,63.936a5.1,5.1,0,0,1,3.657-1.878,39.041,39.041,0,0,0,6.72,14.626,6.372,6.372,0,0,1-1.977.3c-4.151,0-8.351-3.508-9.339-7.807a5.984,5.984,0,0,1,.939-5.238Z" transform="translate(600.234 1019.248)" fill="#020100" fill-rule="evenodd" opacity="0.3"/>
    <path id="Caminho_2047" data-name="Caminho 2047" d="M36.418,72.835A36.418,36.418,0,1,1,72.835,36.418,36.483,36.483,0,0,1,36.418,72.835Zm0-71.847A35.429,35.429,0,1,0,71.847,36.418,35.492,35.492,0,0,0,36.418.988Z" transform="translate(641.388 1038.971) rotate(30)" fill="#9344c4" opacity="0.5"/>
    <path id="Caminho_2048" data-name="Caminho 2048" d="M37.6,7.61a1.044,1.044,0,0,1-1.038-1.038V1.038a1.038,1.038,0,1,1,2.075,0V6.572A.985.985,0,0,1,37.6,7.61Zm0,67.6a1.044,1.044,0,0,1-1.038-1.038V68.635a1.038,1.038,0,1,1,2.075,0V74.17A1.013,1.013,0,0,1,37.6,75.207ZM67.6,37.554a1.044,1.044,0,0,1,1.038-1.038H74.17a1.038,1.038,0,1,1,0,2.075H68.635A.985.985,0,0,1,67.6,37.554Zm-67.6,0a1.044,1.044,0,0,1,1.038-1.038H6.572a1.038,1.038,0,1,1,0,2.075H1.087A1.025,1.025,0,0,1,0,37.554Z" transform="translate(641.219 1036.99) rotate(30)" fill="#fcfcfc" fill-rule="evenodd"/>
    <g id="Grupo_4002" data-name="Grupo 4002" transform="translate(627.886 1061.392)">
      <path id="Caminho_2049" data-name="Caminho 2049" d="M83.779,40.783a1.075,1.075,0,0,1,0-1.482l3.9-3.9a1.048,1.048,0,1,1,1.482,1.482l-3.9,3.9A1.075,1.075,0,0,1,83.779,40.783ZM36,88.565a1.075,1.075,0,0,1,0-1.482l3.9-3.9a1.048,1.048,0,0,1,1.482,1.482l-3.9,3.9A1.075,1.075,0,0,1,36,88.565Z" transform="translate(-35.7 -35.1)" fill="#fcfcfc" fill-rule="evenodd"/>
    </g>
    <g id="Grupo_4003" data-name="Grupo 4003" transform="translate(627.886 1061.343)">
      <path id="Caminho_2050" data-name="Caminho 2050" d="M83.779,83.079a1.075,1.075,0,0,1,1.482,0l3.9,3.9a1.048,1.048,0,0,1-1.482,1.482l-3.9-3.9A1.075,1.075,0,0,1,83.779,83.079ZM36,35.3a1.075,1.075,0,0,1,1.482,0l3.9,3.9A1.048,1.048,0,1,1,39.9,40.683l-3.9-3.9A1.075,1.075,0,0,1,36,35.3Z" transform="translate(-35.7 -35)" fill="#fcfcfc" fill-rule="evenodd"/>
    </g>
    <g id="Grupo_4007" data-name="Grupo 4007" transform="translate(620.076 1065.294)">
      <path id="Caminho_2051" data-name="Caminho 2051" d="M36.95,84.9c-6.77,0-13.589-5.633-15.219-12.6a10.684,10.684,0,0,1,1.779-9.339A9.728,9.728,0,0,1,31.367,59.4c6.77,0,13.589,5.633,15.219,12.6a10.684,10.684,0,0,1-1.779,9.339A9.806,9.806,0,0,1,36.95,84.9ZM31.861,64.44a6,6,0,0,0-4.793,2.125,6.6,6.6,0,0,0-1.038,5.781c1.038,4.546,5.534,8.252,9.932,8.252a6,6,0,0,0,4.793-2.125,6.6,6.6,0,0,0,1.038-5.781c-1.087-4.546-5.534-8.252-9.932-8.252Z" transform="translate(-20.641 -51.295)" fill="#f9efff" fill-rule="evenodd"/>
      <path id="Caminho_2052" data-name="Caminho 2052" d="M30.62,59.282c6.473,0,12.946,5.386,14.478,12.007S42.677,83.3,36.2,83.3,23.257,77.911,21.726,71.29s2.421-12.007,8.894-12.007m4.6,21.3c4.744,0,7.659-3.953,6.523-8.845s-5.88-8.845-10.673-8.845c-4.744,0-7.659,3.953-6.523,8.845s5.93,8.845,10.673,8.845M30.62,57.8a10.573,10.573,0,0,0-8.45,3.854,11.752,11.752,0,0,0-1.927,9.982C21.923,78.9,29.088,84.78,36.154,84.78a10.573,10.573,0,0,0,8.45-3.854,11.752,11.752,0,0,0,1.927-9.982C44.851,63.73,37.735,57.8,30.62,57.8Zm4.6,21.3c-4.1,0-8.2-3.459-9.191-7.709a6.02,6.02,0,0,1,.889-5.139,5.207,5.207,0,0,1,4.2-1.878c4.1,0,8.2,3.459,9.191,7.709a6.02,6.02,0,0,1-.889,5.139A5.2,5.2,0,0,1,35.215,79.1Z" transform="translate(-19.894 -50.485)" fill="#9344c4"/>
      <path id="Caminho_2053" data-name="Caminho 2053" d="M117.589,84.9a9.806,9.806,0,0,1-7.857-3.558A10.842,10.842,0,0,1,107.953,72c1.631-6.918,8.45-12.6,15.219-12.6a9.806,9.806,0,0,1,7.857,3.558,10.842,10.842,0,0,1,1.779,9.339C131.177,79.215,124.358,84.9,117.589,84.9Zm4.546-21.3c-4.4,0-8.894,3.706-9.932,8.252a6.761,6.761,0,0,0,1.038,5.781,5.936,5.936,0,0,0,4.793,2.125c4.4,0,8.894-3.706,9.932-8.252a6.761,6.761,0,0,0-1.038-5.781,5.936,5.936,0,0,0-4.793-2.125Z" transform="translate(-64.269 -51.295)" fill="#f9efff" fill-rule="evenodd"/>
      <path id="Caminho_2054" data-name="Caminho 2054" d="M122.432,59.282c6.473,0,10.426,5.386,8.894,12.007s-8,12.007-14.478,12.007-10.426-5.386-8.894-12.007,8-12.007,14.478-12.007M117.293,79.74c4.744,0,9.537-3.953,10.673-8.845s-1.779-8.845-6.523-8.845S111.907,66,110.771,70.895s1.779,8.845,6.523,8.845m5.139-21.94c-7.116,0-14.231,5.88-15.911,13.144a11.622,11.622,0,0,0,1.927,9.982,10.573,10.573,0,0,0,8.45,3.854c7.116,0,14.231-5.88,15.911-13.144a11.622,11.622,0,0,0-1.927-9.982,10.643,10.643,0,0,0-8.45-3.854Zm-5.139,20.457a5.131,5.131,0,0,1-4.2-1.878,5.89,5.89,0,0,1-.889-5.139c.988-4.25,5.139-7.709,9.191-7.709a5.131,5.131,0,0,1,4.2,1.878,5.89,5.89,0,0,1,.889,5.139C125.5,74.8,121.395,78.257,117.293,78.257Z" transform="translate(-63.529 -50.485)" fill="#9344c4"/>
      <path id="Caminho_2055" data-name="Caminho 2055" d="M88.4,68.03a.745.745,0,0,1-.692-.445,7.224,7.224,0,0,0-6.918-3.8.7.7,0,0,1-.741-.741.728.728,0,0,1,.741-.741,8.7,8.7,0,0,1,8.3,4.694.762.762,0,0,1-.4.988C88.6,67.981,88.5,68.03,88.4,68.03Zm-61.47.445a.627.627,0,0,1-.3-.049.745.745,0,0,1-.4-.988,8.622,8.622,0,0,1,8.3-4.694.741.741,0,1,1,0,1.482,7.319,7.319,0,0,0-6.918,3.8A.837.837,0,0,1,26.934,68.475Z" transform="translate(-23.077 -52.76)" fill="#fcfcfc"/>
      <g id="Grupo_4004" data-name="Grupo 4004" transform="translate(8.596 0)">
        <path id="Caminho_2056" data-name="Caminho 2056" d="M50.065,90.813l-1.235-3.459H60.145l-.247-4.2S40.034,75.1,38.8,48.96a2.843,2.843,0,0,1,2.421-2.915,158.8,158.8,0,0,1,44.769.148,2.843,2.843,0,0,1,2.421,2.915C87.174,75.248,67.26,83.253,67.26,83.253l-.247,4.1H78.329l-1.235,3.459a1.321,1.321,0,0,1-1.235.889H51.3A1.275,1.275,0,0,1,50.065,90.813Z" transform="translate(-38.052 -43.77)" fill="#f9efff" fill-rule="evenodd"/>
        <path id="Caminho_2057" data-name="Caminho 2057" d="M75.145,91.671H50.538a2.08,2.08,0,0,1-1.977-1.384L46.98,85.84H58.543l-.148-2.965c-2.965-1.384-20.012-10.525-21.1-34.639a3.593,3.593,0,0,1,3.064-3.706,158.824,158.824,0,0,1,44.966.148,3.635,3.635,0,0,1,3.064,3.706c-.642,13.737-6.473,22.434-11.266,27.326a35.072,35.072,0,0,1-9.932,7.264l-.148,2.866H78.654l-1.581,4.447A1.973,1.973,0,0,1,75.145,91.671ZM49.994,89.793a.578.578,0,0,0,.544.4H75.145a.536.536,0,0,0,.544-.4l.889-2.471H65.51l.3-5.337.445-.2c.2-.1,19.518-8.153,20.7-33.5a2.136,2.136,0,0,0-1.779-2.174,157.632,157.632,0,0,0-44.522-.148,2.061,2.061,0,0,0-1.779,2.174C39.469,61.38,45.053,69.78,49.6,74.475a31.8,31.8,0,0,0,9.883,7.165l.445.2.3,5.435H49.1l.889,2.52Z" transform="translate(-37.29 -42.997)" fill="#9344c4"/>
      </g>
      <g id="Grupo_4005" data-name="Grupo 4005" transform="translate(27.427 27.92)">
        <path id="Caminho_2058" data-name="Caminho 2058" d="M91.855,99.5H75.4" transform="translate(-75.4 -99.5)" fill="#562d11"/>
      </g>
    </g>
    <text id="P" transform="translate(655.718 1095.718)" fill="#673089" font-size="25" font-family="Arial-Black, Arial" font-weight="800"><tspan x="-9.027" y="0">P</tspan></text>
    <g id="Grupo_4008" data-name="Grupo 4008" transform="translate(654.811 1067.516)" opacity="0.77">
      <path id="Caminho_2061" data-name="Caminho 2061" d="M52.189,91.227V84.161a1.163,1.163,0,0,1,.1-.4c5.09-10.179,4.892-26.98,4.4-35.331a.858.858,0,0,1,.939-.939c5.09.148,9.537.494,12.9.84a.869.869,0,0,1,.791.889A44.342,44.342,0,0,1,54.363,83.716a.944.944,0,0,0-.346.692v6.819a.886.886,0,0,1-.889.889A.9.9,0,0,1,52.189,91.227Z" transform="translate(-52.189 -47.492)" fill="#c699e1" fill-rule="evenodd"/>
    </g>
  </g>
</svg>
