<?xml version="1.0" encoding="UTF-8" standalone="no"?>
<!-- Created with Inkscape (http://www.inkscape.org/) -->

<svg
   xmlns:dc="http://purl.org/dc/elements/1.1/"
   xmlns:cc="http://creativecommons.org/ns#"
   xmlns:rdf="http://www.w3.org/1999/02/22-rdf-syntax-ns#"
   xmlns:svg="http://www.w3.org/2000/svg"
   xmlns="http://www.w3.org/2000/svg"
   xmlns:sodipodi="http://sodipodi.sourceforge.net/DTD/sodipodi-0.dtd"
   xmlns:inkscape="http://www.inkscape.org/namespaces/inkscape"
   id="svg2985"
   version="1.1"
   inkscape:version="0.48.2 r9819"
   width="1000"
   height="206.5985"
   xml:space="preserve"
   sodipodi:docname="C.svg"><metadata
     id="metadata2991"><rdf:RDF><cc:Work
         rdf:about=""><dc:format>image/svg+xml</dc:format><dc:type
           rdf:resource="http://purl.org/dc/dcmitype/StillImage" /><dc:title></dc:title></cc:Work></rdf:RDF></metadata><defs
     id="defs2989"><clipPath
       clipPathUnits="userSpaceOnUse"
       id="clipPath3079"><path
         d="m 0,0 1162.205,0 0,779.528 L 0,779.528 0,0 z"
         id="path3081"
         inkscape:connector-curvature="0" /></clipPath><clipPath
       clipPathUnits="userSpaceOnUse"
       id="clipPath3101"><path
         d="m 376.597,605.551 204.091,0 0,-144.309 -204.091,0 0,144.309 z"
         id="path3103"
         inkscape:connector-curvature="0" /></clipPath><clipPath
       clipPathUnits="userSpaceOnUse"
       id="clipPath3113"><path
         d="m 196.593,193.81 204.095,0 0,-134.278 -204.095,0 0,134.278 z"
         id="path3115"
         inkscape:connector-curvature="0" /></clipPath><clipPath
       clipPathUnits="userSpaceOnUse"
       id="clipPath3125"><path
         d="m 196.589,329.38 204.098,0 0,-135.733 -204.098,0 0,135.733 z"
         id="path3127"
         inkscape:connector-curvature="0" /></clipPath><clipPath
       clipPathUnits="userSpaceOnUse"
       id="clipPath3137"><path
         d="m 0.005,193.714 196.592,0 0,-134.185 -196.592,0 0,134.185 z"
         id="path3139"
         inkscape:connector-curvature="0" /></clipPath><clipPath
       clipPathUnits="userSpaceOnUse"
       id="clipPath3153"><path
         d="m 0,193.804 196.596,0 0,135.572 -196.596,0 0,-135.572 z"
         id="path3155"
         inkscape:connector-curvature="0" /></clipPath><clipPath
       clipPathUnits="userSpaceOnUse"
       id="clipPath3165"><path
         d="m 376.596,329.173 204.093,0 0,-135.708 -204.093,0 0,135.708 z"
         id="path3167"
         inkscape:connector-curvature="0" /></clipPath><clipPath
       clipPathUnits="userSpaceOnUse"
       id="clipPath3177"><path
         d="m 376.684,193.815 204.007,0 0,-134.289 -204.007,0 0,134.289 z"
         id="path3179"
         inkscape:connector-curvature="0" /></clipPath><clipPath
       clipPathUnits="userSpaceOnUse"
       id="clipPath3189"><path
         d="m 0,0 1162.205,0 0,779.528 L 0,779.528 0,0 z"
         id="path3191"
         inkscape:connector-curvature="0" /></clipPath><clipPath
       clipPathUnits="userSpaceOnUse"
       id="clipPath3229"><path
         d="m 581.399,697.311 196.924,0 0,82.217 -196.924,0 0,-82.217 z"
         id="path3231"
         inkscape:connector-curvature="0" /></clipPath><clipPath
       clipPathUnits="userSpaceOnUse"
       id="clipPath3241"><path
         d="m 777.997,697.311 204.363,0 0,82.217 -204.363,0 0,-82.217 z"
         id="path3243"
         inkscape:connector-curvature="0" /></clipPath><clipPath
       clipPathUnits="userSpaceOnUse"
       id="clipPath3253"><path
         d="m 982.032,697.311 180.173,0 0,82.217 -180.173,0 0,-82.217 z"
         id="path3255"
         inkscape:connector-curvature="0" /></clipPath><clipPath
       clipPathUnits="userSpaceOnUse"
       id="clipPath3265"><path
         d="m 581.399,560.741 196.924,0 0,136.896 -196.924,0 0,-136.896 z"
         id="path3267"
         inkscape:connector-curvature="0" /></clipPath><clipPath
       clipPathUnits="userSpaceOnUse"
       id="clipPath3277"><path
         d="m 777.997,560.741 204.363,0 0,136.897 -204.363,0 0,-136.897 z"
         id="path3279"
         inkscape:connector-curvature="0" /></clipPath><clipPath
       clipPathUnits="userSpaceOnUse"
       id="clipPath3289"><path
         d="m 982.032,560.741 180.173,0 0,136.896 -180.173,0 0,-136.896 z"
         id="path3291"
         inkscape:connector-curvature="0" /></clipPath><clipPath
       clipPathUnits="userSpaceOnUse"
       id="clipPath3301"><path
         d="m 581.399,424.172 196.924,0 0,136.896 -196.924,0 0,-136.896 z"
         id="path3303"
         inkscape:connector-curvature="0" /></clipPath><clipPath
       clipPathUnits="userSpaceOnUse"
       id="clipPath3317"><path
         d="m 982.032,424.172 180.173,0 0,136.896 -180.173,0 0,-136.896 z"
         id="path3319"
         inkscape:connector-curvature="0" /></clipPath><clipPath
       clipPathUnits="userSpaceOnUse"
       id="clipPath3329"><path
         d="m 581.399,287.604 196.924,0 0,136.895 -196.924,0 0,-136.895 z"
         id="path3331"
         inkscape:connector-curvature="0" /></clipPath><clipPath
       clipPathUnits="userSpaceOnUse"
       id="clipPath3341"><path
         d="m 777.997,287.602 204.363,0 0,136.897 -204.363,0 0,-136.897 z"
         id="path3343"
         inkscape:connector-curvature="0" /></clipPath><clipPath
       clipPathUnits="userSpaceOnUse"
       id="clipPath3353"><path
         d="m 982.032,287.604 180.173,0 0,136.895 -180.173,0 0,-136.895 z"
         id="path3355"
         inkscape:connector-curvature="0" /></clipPath><clipPath
       clipPathUnits="userSpaceOnUse"
       id="clipPath3365"><path
         d="m 581.399,151.033 196.924,0 0,136.896 -196.924,0 0,-136.896 z"
         id="path3367"
         inkscape:connector-curvature="0" /></clipPath><clipPath
       clipPathUnits="userSpaceOnUse"
       id="clipPath3381"><path
         d="m 982.032,151.033 180.173,0 0,136.896 -180.173,0 0,-136.896 z"
         id="path3383"
         inkscape:connector-curvature="0" /></clipPath><clipPath
       clipPathUnits="userSpaceOnUse"
       id="clipPath3393"><path
         d="m 581.399,151.36 0,-79.618 233.958,-0.026 13.091,-23.027 5.562,0 -13.111,23.027 5.814,0 13.098,-23.027 5.543,0 -13.112,23.027 5.812,0 8.228,-14.462 0,9.726 -2.698,4.736 2.698,0 0,79.644 -264.883,0 z"
         id="path3395"
         inkscape:connector-curvature="0" /></clipPath><clipPath
       clipPathUnits="userSpaceOnUse"
       id="clipPath3405"><path
         d="m 845.954,151.36 0,-79.644 3.445,0 32.565,-57.251 5.564,0 -32.601,57.251 5.814,0 32.567,-57.251 157.009,0 0,136.895 -204.363,0 z m 0,-93.531 24.666,-43.364 5.564,0 -30.23,53.087 0,-9.723 z m 0,-19.942 13.324,-23.422 5.563,0 -18.887,33.168 0,-9.746 z m 0,-19.99 1.953,-3.432 5.593,0 -7.546,13.249 0,-9.817 z"
         id="path3407"
         inkscape:connector-curvature="0" /></clipPath><clipPath
       clipPathUnits="userSpaceOnUse"
       id="clipPath3417"><path
         d="m 1049.99,0 112.215,0 0,151.36 -112.215,0 0,-151.36 z"
         id="path3419"
         inkscape:connector-curvature="0" /></clipPath><clipPath
       clipPathUnits="userSpaceOnUse"
       id="clipPath3429"><path
         d="m 839.624,49.996 6.658,-11.702 0,9.745 -1.114,1.957 -5.544,0 z m -11.359,0 18.017,-31.692 0,9.817 -12.457,21.875 -5.56,0 z"
         id="path3431"
         inkscape:connector-curvature="0" /></clipPath><clipPath
       clipPathUnits="userSpaceOnUse"
       id="clipPath3441"><path
         d="M 893.121,15.771 902.092,0 l 148.225,0 0,15.771 -157.196,0 z m -11.343,0 L 890.75,0 l 5.573,0 -8.982,15.771 -5.563,0 z m -11.343,0 8.971,-15.771 5.573,0 -8.981,15.771 -5.563,0 z m -11.344,0 8.972,-15.771 5.572,0 -8.98,15.771 -5.564,0 z m -11.369,0 8.966,-15.771 5.606,0 -8.981,15.771 -5.591,0 z"
         id="path3443"
         inkscape:connector-curvature="0" /></clipPath><clipPath
       clipPathUnits="userSpaceOnUse"
       id="clipPath3453"><path
         d="M 581.399,0 856.688,0 815.357,72.697 581.399,72.722 581.399,0 z"
         id="path3455"
         inkscape:connector-curvature="0" /></clipPath><clipPath
       clipPathUnits="userSpaceOnUse"
       id="clipPath3465"><path
         d="m 581.399,0 580.806,0 0,779.528 -580.806,0 0,-779.528 z"
         id="path3467"
         inkscape:connector-curvature="0" /></clipPath><clipPath
       clipPathUnits="userSpaceOnUse"
       id="clipPath3533"><path
         d="M 866.278,72.697 907.519,0 l 254.686,0 0,72.697 -295.927,0 z"
         id="path3535"
         inkscape:connector-curvature="0" /></clipPath><clipPath
       clipPathUnits="userSpaceOnUse"
       id="clipPath3543"><path
         d="m 0.256927,-0.101608 0.69487,0 0,0.1756742 -0.69487,0 0,-0.1756742 z"
         id="path3545"
         inkscape:connector-curvature="0" /></clipPath><linearGradient
       x1="0"
       y1="0"
       x2="1"
       y2="0"
       gradientUnits="userSpaceOnUse"
       gradientTransform="matrix(-449.92374,0,0,-449.92374,1294.5143,26.979507)"
       spreadMethod="pad"
       id="linearGradient3547"><stop
         style="stop-opacity:1;stop-color:#ffc20e"
         offset="0"
         id="stop3549" /><stop
         style="stop-opacity:1;stop-color:#fff200"
         offset="1"
         id="stop3551" /></linearGradient><clipPath
       clipPathUnits="userSpaceOnUse"
       id="clipPath3559"><path
         d="M 854.927,72.697 896.323,0 l 5.769,0 -41.351,72.697 -5.814,0 z m -11.343,0 L 884.98,0 l 5.77,0 -41.351,72.697 -5.815,0 z m -11.342,0 L 873.635,0 l 5.771,0 -41.352,72.697 -5.812,0 z m -11.343,0 L 862.295,0 l 5.768,0 -41.35,72.697 -5.814,0 z"
         id="path3561"
         inkscape:connector-curvature="0" /></clipPath><clipPath
       clipPathUnits="userSpaceOnUse"
       id="clipPath3571"><path
         d="m 974.544,7.84 165.249,0 0,55.642 -165.249,0 0,-55.642 z"
         id="path3573"
         inkscape:connector-curvature="0" /></clipPath><clipPath
       clipPathUnits="userSpaceOnUse"
       id="clipPath3785"><path
         d="m 1144.177,680.105 6.902,0 0,27.968 -6.902,0 0,-27.968 z"
         id="path3787"
         inkscape:connector-curvature="0" /></clipPath><clipPath
       clipPathUnits="userSpaceOnUse"
       id="clipPath3883"><path
         d="m 613.638,702.191 134.274,0 0,50.563 -134.274,0 0,-50.563 z"
         id="path3885"
         inkscape:connector-curvature="0" /></clipPath><clipPath
       clipPathUnits="userSpaceOnUse"
       id="clipPath3923"><path
         d="m 581.399,0 580.806,0 0,779.528 -580.806,0 0,-779.528 z"
         id="path3925"
         inkscape:connector-curvature="0" /></clipPath><clipPath
       clipPathUnits="userSpaceOnUse"
       id="clipPath3939"><path
         d="m 0,0 1162.205,0 0,779.528 L 0,779.528 0,0 z"
         id="path3941"
         inkscape:connector-curvature="0" /></clipPath><clipPath
       clipPathUnits="userSpaceOnUse"
       id="clipPath4093"><path
         inkscape:connector-curvature="0"
         d="m 0,841.89 595.276,0 L 595.276,0 0,0 0,841.89 z"
         id="path4095" /></clipPath><linearGradient
       x1="0"
       y1="0"
       x2="1"
       y2="0"
       gradientUnits="userSpaceOnUse"
       gradientTransform="matrix(45.273911,35.371857,35.371857,-45.273911,158.89258,582.24316)"
       spreadMethod="pad"
       id="linearGradient4079"><stop
         style="stop-opacity:1;stop-color:#00416b"
         offset="0"
         id="stop4081" /><stop
         style="stop-opacity:1;stop-color:#00b1eb"
         offset="0.899994"
         id="stop4083" /><stop
         style="stop-opacity:1;stop-color:#0083ca"
         offset="1"
         id="stop4085" /></linearGradient><linearGradient
       x1="0"
       y1="0"
       x2="1"
       y2="0"
       gradientUnits="userSpaceOnUse"
       gradientTransform="matrix(31.931656,0,0,-31.931656,158.67285,617.87598)"
       spreadMethod="pad"
       id="linearGradient4059"><stop
         style="stop-opacity:1;stop-color:#00416b"
         offset="0"
         id="stop4061" /><stop
         style="stop-opacity:1;stop-color:#002447"
         offset="1"
         id="stop4063" /></linearGradient><linearGradient
       x1="0"
       y1="0"
       x2="1"
       y2="0"
       gradientUnits="userSpaceOnUse"
       gradientTransform="matrix(-45.265732,-35.365463,-35.365463,45.265732,171.28955,607.83789)"
       spreadMethod="pad"
       id="linearGradient4037"><stop
         style="stop-opacity:1;stop-color:#ffdd00"
         offset="0"
         id="stop4039" /><stop
         style="stop-opacity:1;stop-color:#d09910"
         offset="0.899994"
         id="stop4041" /><stop
         style="stop-opacity:1;stop-color:#ffdd00"
         offset="1"
         id="stop4043" /></linearGradient><linearGradient
       x1="0"
       y1="0"
       x2="1"
       y2="0"
       gradientUnits="userSpaceOnUse"
       gradientTransform="matrix(-31.9207,0,0,31.9207,171.50146,572.20996)"
       spreadMethod="pad"
       id="linearGradient4017"><stop
         style="stop-opacity:1;stop-color:#d09910"
         offset="0"
         id="stop4019" /><stop
         style="stop-opacity:1;stop-color:#a65718"
         offset="1"
         id="stop4021" /></linearGradient></defs><sodipodi:namedview
     pagecolor="#ffffff"
     bordercolor="#666666"
     borderopacity="1"
     objecttolerance="10"
     gridtolerance="10"
     guidetolerance="10"
     inkscape:pageopacity="0"
     inkscape:pageshadow="2"
     inkscape:window-width="1272"
     inkscape:window-height="1020"
     id="namedview2987"
     showgrid="false"
     fit-margin-left="0.5"
     fit-margin-bottom="0.5"
     fit-margin-top="0.5"
     fit-margin-right="0.5"
     inkscape:zoom="0.46670108"
     inkscape:cx="429.63649"
     inkscape:cy="-164.68533"
     inkscape:window-x="637"
     inkscape:window-y="-7"
     inkscape:window-maximized="0"
     inkscape:current-layer="g2993" /><g
     id="g2993"
     inkscape:groupmode="layer"
     inkscape:label="20130124-revista-350-anos-web"
     transform="matrix(1.25,0,0,-1.25,-1051.9696,1336.5406)"><g
       id="g3529"><g
         id="g3531"
         clip-path="url(#clipPath3533)"><g
           id="g3537"><g
             id="g3539"><g
               id="g3541"
               clip-path="url(#clipPath3543)"><path
                 d="M 866.278,72.697 907.519,0 l 254.686,0 0,72.697 -295.927,0 z"
                 style="fill:url(#linearGradient3547);stroke:none"
                 id="path3553"
                 inkscape:connector-curvature="0" /></g></g></g></g></g><g
       id="g4005"
       transform="matrix(2.4011047,0,0,2.4011047,556.22982,-442.16111)"><g
         id="g4007"><g
           id="g4013"><g
             id="g4015"><path
               d="m 140.565,566.93 c -0.517,-0.643 -0.82,-1.465 -0.82,-2.353 l 0,0 c 0,-2.087 1.691,-3.787 3.798,-3.787 l 0,0 27.506,0 -17.623,22.84 -12.861,-16.7 z"
               style="fill:url(#linearGradient4017);stroke:none"
               id="path4023"
               inkscape:connector-curvature="0" /></g></g></g></g><g
       id="g4025"
       transform="matrix(2.4011047,0,0,2.4011047,556.22982,-442.16111)"><g
         id="g4027"><g
           id="g4033"><g
             id="g4035"><path
               d="m 139.794,606.461 c -2.585,0 -4.872,-1.226 -6.322,-3.13 l 0,0 -13.878,-18.026 c -0.364,-0.466 -0.588,-1.04 -0.588,-1.675 l 0,0 c 0,-0.626 0.199,-1.192 0.563,-1.665 l 0,0 13.886,-18.012 0.092,-0.126 c 1.427,-1.81 3.618,-2.987 6.096,-3.037 l 0,0 0.095,0 1.639,0 2.166,0 c -2.107,0 -3.798,1.7 -3.798,3.787 l 0,0 c 0,0.888 0.303,1.71 0.82,2.353 l 0,0 12.861,16.7 17.623,22.831 -31.255,0 z"
               style="fill:url(#linearGradient4037);stroke:none"
               id="path4045"
               inkscape:connector-curvature="0" /></g></g></g></g><g
       id="g4047"
       transform="matrix(2.4011047,0,0,2.4011047,556.22982,-442.16111)"><g
         id="g4049"><g
           id="g4055"><g
             id="g4057"><path
               d="m 159.126,629.291 17.631,-22.83 12.87,16.675 c 0.497,0.66 0.814,1.473 0.814,2.359 l 0,0 c 0,2.097 -1.702,3.796 -3.8,3.796 l 0,0 -27.515,0 z"
               style="fill:url(#linearGradient4059);stroke:none"
               id="path4065"
               inkscape:connector-curvature="0" /></g></g></g></g><g
       id="g4067"
       transform="matrix(2.4011047,0,0,2.4011047,556.22982,-442.16111)"><g
         id="g4069"><g
           id="g4075"><g
             id="g4077"><path
               d="m 188.815,629.291 -2.174,0 c 2.098,0 3.8,-1.699 3.8,-3.796 l 0,0 c 0,-0.886 -0.317,-1.699 -0.814,-2.359 l 0,0 -12.87,-16.675 -17.631,-22.831 31.253,0 c 2.579,0 4.88,1.219 6.341,3.112 l 0,0 13.867,18.027 c 0.366,0.466 0.586,1.049 0.586,1.684 l 0,0 c 0,0.627 -0.213,1.192 -0.554,1.64 l 0,0 -13.883,18.027 -0.09,0.137 c -1.438,1.8 -3.638,2.976 -6.098,3.026 l 0,0 c -0.045,0.008 -0.076,0.008 -0.107,0.008 l 0,0 -1.626,0 z"
               style="fill:url(#linearGradient4079);stroke:none"
               id="path4087"
               inkscape:connector-curvature="0" /></g></g></g></g><g
       id="g4089"
       transform="matrix(2.4011047,0,0,2.4011047,556.22982,-442.16111)"><g
         id="g4091"
         clip-path="url(#clipPath4093)"><g
           id="g4097"
           transform="translate(190.5972,623.1357)"><path
             d="m 0,0 c 0.518,0.661 0.817,1.473 0.817,2.36 0,2.097 -1.692,3.795 -3.791,3.795 l -0.982,0 c 2.098,0 3.8,-1.698 3.8,-3.795 C -0.156,1.473 -0.473,0.661 -0.97,0 L -13.84,-16.675 -31.471,-39.506 0,0 z"
             style="fill:#00c0f3;fill-opacity:1;fill-rule:nonzero;stroke:none"
             id="path4099"
             inkscape:connector-curvature="0" /></g><g
           id="g4101"
           transform="translate(139.5757,566.9297)"><path
             d="m 0,0 c -0.499,-0.643 -0.813,-1.464 -0.813,-2.353 0,-2.086 1.706,-3.787 3.79,-3.787 l 0.99,0 c -2.107,0 -3.798,1.701 -3.798,3.787 0,0.889 0.304,1.71 0.82,2.353 L 13.85,16.7 31.473,39.531 0,0 z"
             style="fill:#ffd400;fill-opacity:1;fill-rule:nonzero;stroke:none"
             id="path4103"
             inkscape:connector-curvature="0" /></g><g
           id="g4105"
           transform="translate(445.3198,582.0654)"><path
             d="m 0,0 c -1.297,0.575 -2.938,0.965 -4.729,1.403 -2.646,0.66 -5.099,0.805 -6.013,2.226 -0.85,1.319 -0.381,2.866 0.752,3.652 2.603,1.783 6.138,1.073 8.094,0.167 0.328,-0.143 1.781,-0.979 1.781,-0.979 0.195,-0.125 0.437,-0.203 0.697,-0.203 0.465,0 0.852,0.22 1.098,0.558 0.019,0.042 3.705,4.829 3.705,4.829 l -0.621,0.491 c -0.358,0.262 -0.868,0.625 -1.41,0.938 -1.108,0.625 -4.473,2.563 -9.362,2.563 l -0.43,0 C -17.16,15.39 -18.641,7.815 -18.641,5.142 c 0,-4.061 2.088,-6.977 5.235,-8.786 2.51,-1.455 7.273,-2.239 9.701,-2.976 1.26,-0.379 2.187,-1.253 2.535,-2.106 0.162,-0.371 0.248,-0.77 0.26,-1.192 0.045,-1.387 -0.707,-3.002 -2.789,-3.654 -2.309,-0.7 -5.951,-0.407 -9.25,2.183 -0.094,0.076 -0.465,0.364 -0.59,0.412 -0.162,0.062 -0.316,0.085 -0.504,0.085 -0.471,0 -0.84,-0.246 -1.103,-0.607 -0.053,-0.068 -3.67,-4.721 -3.67,-4.721 0,0 1.275,-1.054 1.697,-1.376 2.08,-1.565 5.81,-3.679 10.709,-3.679 l 0.187,0 C 4.08,-21.24 6.533,-13.927 6.533,-9.893 6.533,-5.793 4.023,-1.809 0,0"
             style="fill:#00416b;fill-opacity:1;fill-rule:nonzero;stroke:none"
             id="path4107"
             inkscape:connector-curvature="0" /></g><g
           id="g4109"
           transform="translate(330.1714,597.1328)"><path
             d="m 0,0 c -1.768,-0.025 -3.246,-0.245 -4.736,-0.684 -2.373,-0.743 -4.186,-2.046 -5.569,-3.863 -2.283,-3.028 -2.259,-6.621 -2.259,-6.621 l 0,-25.099 6.712,0 c 0.424,0 0.78,0.355 0.78,0.78 l 0,23.861 c 0,0.481 0.072,2.114 1,2.969 0.74,0.667 1.738,0.989 2.715,1.133 1.087,0.16 2.097,0.084 2.601,0.016 0,0 0.102,-0.016 0.17,-0.016 0.488,0 0.91,0.272 1.149,0.66 l 3.433,5.91 C 4.084,-0.287 2.174,0.027 0,0"
             style="fill:#00416b;fill-opacity:1;fill-rule:nonzero;stroke:none"
             id="path4111"
             inkscape:connector-curvature="0" /></g><g
           id="g4113"
           transform="translate(310.3296,597.1328)"><path
             d="m 0,0 c -1.77,-0.025 -3.266,-0.245 -4.73,-0.684 -2.393,-0.743 -4.192,-2.046 -5.584,-3.863 -2.29,-3.028 -2.247,-6.621 -2.247,-6.621 l 0,-25.099 6.706,0 c 0.416,0 0.773,0.355 0.773,0.78 l 0,23.861 c 0,0.481 0.061,2.114 1.004,2.969 0.736,0.667 1.742,0.989 2.721,1.133 1.091,0.16 2.08,0.084 2.587,0.016 0,0 0.12,-0.016 0.17,-0.016 0.493,0 0.922,0.272 1.159,0.66 l 3.433,5.91 C 4.072,-0.287 2.162,0.027 0,0"
             style="fill:#00416b;fill-opacity:1;fill-rule:nonzero;stroke:none"
             id="path4115"
             inkscape:connector-curvature="0" /></g><g
           id="g4117"
           transform="translate(251.2612,570.1602)"><path
             d="m 0,0 c -0.254,0.329 -0.65,0.54 -1.109,0.54 -0.262,0 -0.506,-0.067 -0.7,-0.193 L -1.844,0.338 c -2.281,-1.378 -4.963,-2.157 -7.83,-2.157 -8.414,0 -15.262,6.85 -15.262,15.271 0,8.414 6.848,15.272 15.262,15.272 2.867,0 5.539,-0.796 7.822,-2.147 0.213,-0.153 0.475,-0.22 0.743,-0.22 0.441,0 0.847,0.22 1.101,0.523 l 3.811,4.964 c -3.778,2.782 -8.432,4.415 -13.477,4.415 -12.572,0 -22.805,-10.233 -22.805,-22.807 0,-12.582 10.233,-22.822 22.805,-22.822 5.045,0 9.699,1.641 13.496,4.414 L 0,0 z"
             style="fill:#00416b;fill-opacity:1;fill-rule:nonzero;stroke:none"
             id="path4119"
             inkscape:connector-curvature="0" /></g><g
           id="g4121"
           transform="translate(353.5269,590.4463)"><path
             d="m 0,0 c 4.955,0 9.143,-3.215 10.629,-7.672 l -21.24,0 C -9.133,-3.215 -4.928,0 0,0 m 0,7.211 c -10.143,0 -18.408,-8.251 -18.408,-18.407 0,-10.055 8.269,-18.305 18.426,-18.418 l 0.541,0 c 4.017,0 7.214,0.542 11.462,3.299 l 0.688,0.446 c 0,0 -3.775,4.89 -3.813,4.95 -0.251,0.328 -0.64,0.522 -1.08,0.522 -0.252,0 -0.484,-0.059 -0.677,-0.175 C 6.188,-21.073 3.229,-22.4 0,-22.4 c -4.854,-0.01 -8.99,3.112 -10.545,7.439 l 25.207,0 2.91,0.019 c 0.436,0 0.791,0.345 0.791,0.768 l 0.041,2.158 c 0.01,0.271 0.03,0.547 0.03,0.82 C 18.434,-1.04 10.166,7.211 0,7.211"
             style="fill:#00416b;fill-opacity:1;fill-rule:nonzero;stroke:none"
             id="path4123"
             inkscape:connector-curvature="0" /></g><g
           id="g4125"
           transform="translate(377.0269,560.79)"><path
             d="m 0,0 c -0.428,0 -0.779,0.338 -0.783,0.754 l 0,34.153 c 0.004,0.406 0.336,0.752 0.748,0.768 l 5.953,0 c 0.432,0 0.787,-0.344 0.787,-0.778 l 0,-34.126 C 6.705,0.347 6.35,0 5.918,0 L 0,0 z"
             style="fill:#00416b;fill-opacity:1;fill-rule:nonzero;stroke:none"
             id="path4127"
             inkscape:connector-curvature="0" /></g><g
           id="g4129"
           transform="translate(274.9312,590.5469)"><path
             d="m 0,0 c -6.121,0 -11.111,-4.989 -11.111,-11.109 0,-6.14 4.99,-11.115 11.111,-11.115 6.139,0 11.123,4.975 11.123,11.115 C 11.123,-4.989 6.139,0 0,0 m 0,-29.757 c -10.277,0 -18.639,8.364 -18.639,18.648 0,10.273 8.362,18.627 18.639,18.627 10.285,0 18.641,-8.354 18.641,-18.627 0,-10.284 -8.356,-18.648 -18.641,-18.648"
             style="fill:#00416b;fill-opacity:1;fill-rule:nonzero;stroke:none"
             id="path4131"
             inkscape:connector-curvature="0" /></g><g
           id="g4133"
           transform="translate(405.9019,590.2744)"><path
             d="m 0,0 c -6.07,0 -11,-4.928 -11,-10.991 0,-6.062 4.93,-11.001 11,-11.001 6.064,0 10.996,4.939 10.996,11.001 C 10.996,-4.928 6.064,0 0,0 m 0,-29.434 c -10.17,0 -18.439,8.28 -18.439,18.443 0,10.174 8.269,18.442 18.439,18.442 10.17,0 18.447,-8.268 18.447,-18.442 0,-10.163 -8.277,-18.443 -18.447,-18.443"
             style="fill:#00416b;fill-opacity:1;fill-rule:nonzero;stroke:none"
             id="path4135"
             inkscape:connector-curvature="0" /></g></g></g></g></svg>