<svg id="delivery-icon" xmlns="http://www.w3.org/2000/svg" width="35.681" height="27.721" viewBox="0 0 35.681 27.721">
  <path id="Caminho_210" data-name="Caminho 210" d="M56.367,6.669,44.381.087a.7.7,0,0,0-.671,0L39.2,2.562a.7.7,0,0,0-.277.152l-7.2,3.955a.7.7,0,0,0-.362.611V8.7h-8.04a.7.7,0,1,0,0,1.394h8.04v2.509h-4a.7.7,0,0,0,0,1.394h4v3.624H25.508a.7.7,0,0,0,0,1.394h5.854v1.425a.7.7,0,0,0,.362.611L43.71,27.636a.7.7,0,0,0,.671,0l11.986-6.582a.7.7,0,0,0,.362-.611V17.323a.7.7,0,1,0-1.394,0v2.708L44.742,25.847V14.274l3.369-1.85V15.36a.7.7,0,0,0,1.033.611l2.569-1.414a.7.7,0,0,0,.361-.611v-3.7l3.262-1.791v3.29a.7.7,0,0,0,1.394,0V7.28A.7.7,0,0,0,56.367,6.669ZM43.349,25.847,32.756,20.031V8.457l10.593,5.816Zm.7-12.781L33.507,7.28l3.312-1.819,10.539,5.787Zm4.76-2.614L38.267,4.666l1.143-.627L49.948,9.825Zm1.874,3.082-1.175.647V11.659l1.175-.645Zm.716-4.5L40.858,3.243l3.188-1.75L54.584,7.28Zm0,0" transform="translate(-21.048 -0.001)" fill="#292929"/>
  <path id="Caminho_211" data-name="Caminho 211" d="M492.7,198.563a.7.7,0,1,0,.493.2A.7.7,0,0,0,492.7,198.563Zm0,0" transform="translate(-457.713 -184.725)" fill="#292929"/>
  <path id="Caminho_212" data-name="Caminho 212" d="M1.7,252.891H.7a.7.7,0,1,0,0,1.394h1a.7.7,0,1,0,0-1.394Zm0,0" transform="translate(0 -235.267)" fill="#292929"/>
  <path id="Caminho_213" data-name="Caminho 213" d="M42.066,181.588a.7.7,0,1,0-.2.493A.7.7,0,0,0,42.066,181.588Zm0,0" transform="translate(-37.838 -168.285)" fill="#292929"/>
</svg>
