<svg id="e-mail" xmlns="http://www.w3.org/2000/svg" width="94" height="94" viewBox="0 0 94 94">
  <circle id="Elipse_89" data-name="Elipse 89" cx="47" cy="47" r="47" fill="#f9efff"/>
  <path id="Caminho_208" data-name="Caminho 208" d="M-11805.522,14447.493v36.354s-.61,4.7,4.68,5.947,53.91,0,53.91,0,7.842-3.652,7.743-7.854,0-34.448,0-34.448h-4.355l-27.922,17.27-8.248-2.1Z" transform="translate(11820 -14419)" fill="#fff"/>
  <g id="Grupo_461" data-name="Grupo 461" transform="translate(-567 -519)">
    <g id="Grupo_458" data-name="Grupo 458">
      <g id="enviar" transform="translate(577.633 477.227)">
        <g id="Grupo_431" data-name="Grupo 431" transform="translate(0 60.5)">
          <path id="Caminho_188" data-name="Caminho 188" d="M69.893,93.316a2.841,2.841,0,0,0,2.841-2.841V71.865A11.378,11.378,0,0,0,61.37,60.5h-50A11.378,11.378,0,0,0,0,71.865V104.68a11.378,11.378,0,0,0,11.365,11.365h50A11.378,11.378,0,0,0,72.734,104.68a2.841,2.841,0,0,0-5.682,0,5.689,5.689,0,0,1-5.682,5.682h-50a5.689,5.689,0,0,1-5.682-5.682V72.467L30.366,87.816a11.295,11.295,0,0,0,12,0L67.052,72.467V90.475A2.841,2.841,0,0,0,69.893,93.316ZM39.368,82.99a5.647,5.647,0,0,1-6,0L8.053,67.25a5.652,5.652,0,0,1,3.312-1.067h50a5.652,5.652,0,0,1,3.312,1.067Z" transform="translate(0 -60.5)" fill="#9344c4"/>
        </g>
      </g>
    </g>
  </g>
  <g id="varredura" transform="translate(48 -2.2)">
    <g id="Grupo_441" data-name="Grupo 441" transform="translate(3.733 51.733)">
      <g id="Grupo_440" data-name="Grupo 440" transform="translate(0 0)">
        <rect id="Retângulo_320" data-name="Retângulo 320" width="2" height="14" transform="translate(0.267 0.467)" fill="#9344c4"/>
      </g>
    </g>
    <g id="Grupo_443" data-name="Grupo 443" transform="translate(7.467 51.733)">
      <g id="Grupo_442" data-name="Grupo 442" transform="translate(0 0)">
        <rect id="Retângulo_321" data-name="Retângulo 321" width="2" height="11" transform="translate(-0.467 0.467)" fill="#9344c4"/>
      </g>
    </g>
    <g id="Grupo_445" data-name="Grupo 445" transform="translate(11.2 51.733)">
      <g id="Grupo_444" data-name="Grupo 444" transform="translate(0 0)">
        <rect id="Retângulo_322" data-name="Retângulo 322" width="2" height="11" transform="translate(-0.2 0.467)" fill="#9344c4"/>
      </g>
    </g>
    <g id="Grupo_447" data-name="Grupo 447" transform="translate(14.933 51.733)">
      <g id="Grupo_446" data-name="Grupo 446" transform="translate(0 0)">
        <rect id="Retângulo_323" data-name="Retângulo 323" width="2" height="14" transform="translate(0.067 0.467)" fill="#9344c4"/>
      </g>
    </g>
    <g id="Grupo_449" data-name="Grupo 449" transform="translate(18.667 51.733)">
      <g id="Grupo_448" data-name="Grupo 448" transform="translate(0 0)">
        <rect id="Retângulo_324" data-name="Retângulo 324" width="2" height="11" transform="translate(0.333 0.467)" fill="#9344c4"/>
      </g>
    </g>
    <g id="Grupo_451" data-name="Grupo 451" transform="translate(22.4 51.733)">
      <g id="Grupo_450" data-name="Grupo 450" transform="translate(0 0)">
        <rect id="Retângulo_325" data-name="Retângulo 325" width="2" height="14" transform="translate(-0.4 0.467)" fill="#9344c4"/>
      </g>
    </g>
    <g id="Grupo_453" data-name="Grupo 453" transform="translate(7.467 64.8)">
      <g id="Grupo_452" data-name="Grupo 452">
        <rect id="Retângulo_326" data-name="Retângulo 326" width="2" height="1" transform="translate(-0.467 0.4)" fill="#9344c4"/>
      </g>
    </g>
    <g id="Grupo_455" data-name="Grupo 455" transform="translate(11.2 64.8)">
      <g id="Grupo_454" data-name="Grupo 454">
        <rect id="Retângulo_327" data-name="Retângulo 327" width="2" height="1" transform="translate(-0.2 0.4)" fill="#9344c4"/>
      </g>
    </g>
    <g id="Grupo_457" data-name="Grupo 457" transform="translate(18.667 64.8)">
      <g id="Grupo_456" data-name="Grupo 456">
        <rect id="Retângulo_328" data-name="Retângulo 328" width="2" height="1" transform="translate(0.333 0.4)" fill="#9344c4"/>
      </g>
    </g>
  </g>
</svg>
