<svg xmlns="http://www.w3.org/2000/svg" xmlns:xlink="http://www.w3.org/1999/xlink" width="814" height="958" viewBox="0 0 814 958">
  <defs>
    <linearGradient id="linear-gradient" x1="0.5" x2="0.5" y2="1" gradientUnits="objectBoundingBox">
      <stop offset="0" stop-color="#a4775a"/>
      <stop offset="1" stop-color="#d7a485"/>
    </linearGradient>
    <clipPath id="clip-path">
      <rect id="Ret칙ngulo_37" data-name="Ret칙ngulo 37" width="814" height="958" transform="translate(6201 4076)" fill="#fff"/>
    </clipPath>
  </defs>
  <g id="envelope.3bc4c19c" transform="translate(-6201 -4076)">
    <path id="Caminho_84" data-name="Caminho 84" d="M6870.58,4359.949v324.41l-619.371-74.114V4289.6Z" fill="url(#linear-gradient)"/>
    <path id="Caminho_83" data-name="Caminho 83" d="M6251.383,4288.967,6540.4,4494.8l330.182-134.958Z" fill="#d7a485"/>
    <g id="Grupo_de_m치scara_4" data-name="Grupo de m치scara 4" clip-path="url(#clip-path)">
      <g id="Grupo_53" data-name="Grupo 53" transform="translate(671.459 1016.779)">
        <g id="Grupo_48" data-name="Grupo 48" transform="translate(5529.541 3272.221)">
          <path id="Caminho_32" data-name="Caminho 32" d="M6194.417,3296.747v327l-620.935-76.856V3226.416Z" transform="translate(-5523.355 -3226.416)" fill="none" stroke="#fff" stroke-linecap="round" stroke-linejoin="round" stroke-width="4"/>
          <path id="Caminho_33" data-name="Caminho 33" d="M5573.482,3226.416l289.391,207.366,331.544-137.76" transform="translate(-5523.355 -3226.416)" fill="none" stroke="#fff" stroke-linecap="round" stroke-linejoin="round" stroke-width="4"/>
          <path id="Caminho_34" data-name="Caminho 34" d="M6159.714,3297.12v330.625" transform="translate(-5437.649 -3224.977)" fill="none" stroke="#9344c4" stroke-linecap="round" stroke-width="4"/>
          <path id="Caminho_35" data-name="Caminho 35" d="M6184.22,3297.119h-47.954" transform="translate(-5438.158 -3224.976)" fill="none" stroke="#9344c4" stroke-linecap="round" stroke-width="4"/>
          <path id="Caminho_36" data-name="Caminho 36" d="M6184.219,3297.119h-47.953" transform="translate(-5438.158 -2894.378)" fill="none" stroke="#9344c4" stroke-linecap="round" stroke-width="4"/>
          <path id="Caminho_37" data-name="Caminho 37" d="M5553.664,3581.02l39.722-32.737" transform="translate(-4922.324 -3138.233)" fill="none" stroke="#9344c4" stroke-linecap="round" stroke-width="4"/>
          <path id="Caminho_40" data-name="Caminho 40" d="M5553.664,3581.02l39.722-32.737" transform="translate(-5553.664 -3216.801)" fill="none" stroke="#9344c4" stroke-linecap="round" stroke-width="3"/>
          <path id="Caminho_39" data-name="Caminho 39" d="M6212.971,3644.29l-631.99-78.242" transform="translate(-5561.546 -3217.906)" fill="none" stroke="#9344c4" stroke-linecap="round" stroke-width="4"/>
        </g>
        <path id="Caminho_72" data-name="Caminho 72" d="M26.678-5.241h27.31V10.451H6.2V-74.235H26.678Z" transform="translate(6289.553 3525.038)" fill="#707070"/>
        <path id="Caminho_73" data-name="Caminho 73" d="M45.195-74.97q16.17,0,26.771,8.5t13.715,23H64a19.892,19.892,0,0,0-7.367-9.223,20.59,20.59,0,0,0-11.8-3.354,17.972,17.972,0,0,0-14.494,6.588q-5.51,6.588-5.51,17.608T30.342-14.3A18.041,18.041,0,0,0,44.835-7.773a20.59,20.59,0,0,0,11.8-3.354A19.978,19.978,0,0,0,64-20.23h21.68Q82.567-5.856,71.966,2.708T45.195,11.273a42.239,42.239,0,0,1-21.68-5.45A36.993,36.993,0,0,1,9.081-9.45a47.968,47.968,0,0,1-5.091-22.4,47.968,47.968,0,0,1,5.091-22.4A36.994,36.994,0,0,1,23.514-69.52,42.239,42.239,0,0,1,45.195-74.97Z" transform="translate(5812.398 3793.017)" fill="#707070"/>
      </g>
    </g>
  </g>
</svg>
