<svg id="envelope" xmlns="http://www.w3.org/2000/svg" width="473.816" height="558.406" viewBox="0 0 473.816 558.406">
  <defs>
   <style>
      path{
        fill: #858585;
        fill-rule: evenodd;
      }
      .atv {
        fill: #0050dc;
      }
    </style>
  </defs>
  <path id="base" d="M1159.7,82.956l-0.81,293.389-0.67.39L779.3,596.753v0l-2.71,1.572,0.816-294.033-0.322-.13,0.652-2.625L778.88,302,1159.71,80.6Zm-3.51,291.83,0.79-286.293-145.84,309-1.02-.253L780.108,305.372l-0.62,223.494-0.18,64.755Zm-376.639,131.3,0.557-200.71h0ZM1009.74,394.354L1154.93,86.5,782.068,303.275ZM1157,85.3h0Z" transform="translate(-713.094 -80.594)"/>
  <path id="L" class="" d="M734,593.706h12.078V308.341H734v-3.627h27.779v3.627H749.7V593.706h12.078v3.627H734v-3.627Zm3.667-120.979H713.1v-46.4h9.3v39.018h15.271v7.376Z" transform="translate(-713.094 -80.594)"/>
  <path id="C" class="" d="M1183.76,412.288l-6.04-10.473-389.1,224.906,6.039,10.471-3.14,1.814-13.89-24.075,3.14-1.813,6.039,10.471L1175.91,398.683l-6.04-10.471,3.14-1.814,13.89,24.086ZM1018.43,514.7c10.29,0,18.66,5.518,21.77,15.023h-10.69a11.671,11.671,0,0,0-11.14-6.65c-8.11,0-13.88,5.916-13.88,15.356,0,9.372,5.77,15.357,13.88,15.357a11.618,11.618,0,0,0,11.14-6.714h10.69c-3.11,9.572-11.48,15.023-21.77,15.023-13.35,0-23.507-9.771-23.507-23.665S1005.08,514.7,1018.43,514.7Z" transform="translate(-713.094 -80.594)"/>
</svg>
