<svg id="hotmart" xmlns="http://www.w3.org/2000/svg" width="91.896" height="76.226" viewBox="0 0 91.896 76.226">
  <circle id="Elipse_175" data-name="Elipse 175" cx="37.5" cy="37.5" r="37.5" transform="translate(4.396 0.306)" fill="#f9efff"/>
  <g id="ticket_1_" data-name="ticket (1)" transform="translate(0 47.181) rotate(-45)">
    <g id="Grupo_499" data-name="Grupo 499">
      <path id="Caminho_207" data-name="Caminho 207" d="M1.457,13.938h0v5.812s6.2,1.076,6.213,5.849-6.213,6.688-6.213,6.688V39.98l3.721,2.058h46.6l1.472-2.058V32.288s-6.011-1.954-5.769-5.529,1.49-5.419,5.769-6.491c.235-.994,0-7.667,0-7.667s.507-2.416-3.647-2.439-46.426.375-46.426.375L2.078,12.031l-.621,1.907" transform="translate(-0.3 -2.09)" fill="#fff"/>
      <g id="Grupo_498" data-name="Grupo 498">
        <path id="Caminho_202" data-name="Caminho 202" d="M66.693,127.444l-.784-6.569a1.3,1.3,0,0,0-1.426-1.142,4.806,4.806,0,0,1-1.139-9.543,1.3,1.3,0,0,0,1.118-1.446l-.784-6.569a4.279,4.279,0,0,0-4.756-3.742L13.148,103.9a4.25,4.25,0,0,0-2.834,1.576H4.279A4.284,4.284,0,0,0,0,109.753v6.615a1.3,1.3,0,0,0,1.281,1.3,4.806,4.806,0,0,1,0,9.611A1.3,1.3,0,0,0,0,128.585V135.2a4.283,4.283,0,0,0,4.279,4.279h46.1a4.283,4.283,0,0,0,4.279-4.279V133.19l8.3-.99a4.278,4.278,0,0,0,3.741-4.756ZM52.05,130.876V135.2a1.674,1.674,0,0,1-1.672,1.672H42.3v-2.443a1.3,1.3,0,1,0-2.606,0v2.443H4.279A1.674,1.674,0,0,1,2.606,135.2v-5.444a7.368,7.368,0,0,0,3.876-2.08,7.411,7.411,0,0,0,0-10.4,7.369,7.369,0,0,0-3.876-2.08v-5.444a1.674,1.674,0,0,1,1.672-1.672H39.691V123.95a1.3,1.3,0,1,0,2.606,0V108.081h8.08a1.674,1.674,0,0,1,1.672,1.672V115.2a7.415,7.415,0,0,0,0,14.559v1.119Zm11.709-1.891a1.662,1.662,0,0,1-1.116.626l-7.987.953v-1.98a1.3,1.3,0,0,0-1.281-1.3,4.806,4.806,0,0,1,0-9.611,1.3,1.3,0,0,0,1.281-1.3v-6.615a4.283,4.283,0,0,0-4.279-4.279H21.932l37.3-4.452a1.672,1.672,0,0,1,1.859,1.462l.645,5.406a7.415,7.415,0,0,0,1.725,14.456l.645,5.406A1.662,1.662,0,0,1,63.759,128.985Z" transform="translate(0 -98.403)" fill="#9344c4"/>
        <path id="Caminho_203" data-name="Caminho 203" d="M307.074,325.447a1.321,1.321,0,0,0-.12-.224,1.248,1.248,0,0,0-.162-.2,1.306,1.306,0,0,0-.2-.162,1.291,1.291,0,0,0-.225-.12,1.318,1.318,0,0,0-.244-.076,1.278,1.278,0,0,0-.753.076,1.323,1.323,0,0,0-.422.281,1.256,1.256,0,0,0-.163.2,1.318,1.318,0,0,0-.12.224,1.362,1.362,0,0,0-.074.245,1.319,1.319,0,0,0,0,.508,1.317,1.317,0,0,0,.074.244,1.284,1.284,0,0,0,.12.225,1.294,1.294,0,0,0,.361.36,1.324,1.324,0,0,0,.224.12,1.252,1.252,0,0,0,.244.074,1.258,1.258,0,0,0,.51,0,1.226,1.226,0,0,0,.244-.074,1.388,1.388,0,0,0,.225-.12,1.308,1.308,0,0,0,.2-.162,1.25,1.25,0,0,0,.162-.2,1.286,1.286,0,0,0,.12-.225,1.314,1.314,0,0,0,.074-.244,1.252,1.252,0,0,0,0-.508A1.359,1.359,0,0,0,307.074,325.447Z" transform="translate(-264.877 -295.16)" fill="#9344c4"/>
      </g>
    </g>
  </g>
  <circle id="Elipse_176" data-name="Elipse 176" cx="8.5" cy="8.5" r="8.5" transform="translate(68.396 45.306)" fill="#fff"/>
  <path id="Caminho_2045" data-name="Caminho 2045" d="M55.023,131.9a28.72,28.72,0,0,0-4.276-15.034c-.085-.13-.226-.079-.2.057.209.769.26,2.166-.962,2.081-2.172-.147.074-4.8-4.695-8.021a.1.1,0,0,0-.158.124c.328.622.52,2.562-.232,3.224-.605.532-1.7.39-2.789-1.357a7.551,7.551,0,0,1,.107-7.964c.09-.147-.034-.2-.136-.17-6.561,2.166-7.873,9.9-9.271,12.721-.232.475-.436.718-.837.7-1.193-.079-.334-2.63.079-3.518a.1.1,0,0,0-.164-.113,27.868,27.868,0,0,0-7.019,15.13c0-.13-.057.464-.091.9h0a3.976,3.976,0,0,1-.034.515v.617a15.354,15.354,0,1,0,30.708.255A.273.273,0,0,1,55.023,131.9Zm-15.408,7.132a7.121,7.121,0,1,1,7.161-7.059A7.121,7.121,0,0,1,39.616,139.035Z" transform="translate(36.839 -78.231)" fill="#9344c4"/>
</svg>
