<svg id="ticket" xmlns="http://www.w3.org/2000/svg" viewBox="0 0 75 75"><defs><style>.cls-1{fill:#f9efff;}.cls-2{fill:#9344c4;}</style></defs><circle id="Elipse_86" data-name="Elipse 86" class="cls-1" cx="37.5" cy="37.5" r="37.5"/><g id="ticket-2" data-name="ticket"><g id="Grupo_499" data-name="Grupo 499"><path class="cls-2" d="M32.5,47.5l-5,4.25a4.91,4.91,0,1,1-6.37-7.47l10-8.5a4.91,4.91,0,0,1,6.92.55,1.64,1.64,0,0,0,2.49-2.12A8.18,8.18,0,0,0,29,33.29l-10,8.5A8.19,8.19,0,1,0,29.65,54.24l5-4.25a1.62,1.62,0,0,0,.18-2.3A1.64,1.64,0,0,0,32.5,47.5Z"/><path class="cls-2" d="M55.21,21.67a8.17,8.17,0,0,0-11.53-.91l-6,5.1a1.62,1.62,0,0,0-.18,2.3,1.64,1.64,0,0,0,2.31.19l6-5.1a4.91,4.91,0,0,1,6.38,7.47l-11,9.35a4.91,4.91,0,0,1-6.92-.55,1.64,1.64,0,1,0-2.49,2.12,8.18,8.18,0,0,0,11.53.92l11-9.35A8.18,8.18,0,0,0,55.21,21.67Z"/></g></g></svg>