<svg xmlns="http://www.w3.org/2000/svg" xmlns:xlink="http://www.w3.org/1999/xlink" width="185" height="91" viewBox="0 0 185 91">
  <defs>
    <clipPath id="clip-path">
      <rect id="Retângulo_1" data-name="Retângulo 1" width="185" height="91" transform="translate(847 354)" fill="#fff" stroke="#707070" stroke-width="1"/>
    </clipPath>
  </defs>
  <g id="melhor-envio" transform="translate(-847 -354)" clip-path="url(#clip-path)">
    <g id="melhorenvio" transform="translate(881 373)">
      <path id="path2" d="M392.436,37.086v3.26a3.26,3.26,0,0,0-3.26,3.261v10.1h-3.261v-10.1a6.52,6.52,0,0,1,6.52-6.521" transform="translate(-299.452 -28.777)" fill="#004e9f"/>
      <path id="path4" d="M16.3,37.086a6.5,6.5,0,0,0-4.89,2.21A6.519,6.519,0,0,0,0,43.607v10.1H3.26v-10.1a3.26,3.26,0,1,1,6.521,0v10.1h3.26v-10.1a3.26,3.26,0,1,1,6.52,0v10.1h3.261v-10.1A6.52,6.52,0,0,0,16.3,37.086" transform="translate(0 -28.777)" fill="#004e9f"/>
      <path id="path6" d="M201.6,24.928v-3.26a3.261,3.261,0,0,1-3.26-3.261V0h-3.26V18.408a6.52,6.52,0,0,0,6.52,6.521" transform="translate(-151.375)" fill="#004e9f"/>
      <path id="path8" d="M240.408,8.447a6.487,6.487,0,0,0-3.26.875V.177h-3.261V25.066h3.261v-10.1a3.26,3.26,0,1,1,6.52,0v10.1h3.261v-10.1a6.52,6.52,0,0,0-6.521-6.521" transform="translate(-181.485 -0.138)" fill="#004e9f"/>
      <path id="path10" d="M127.938,44.076a8.271,8.271,0,1,0-1.456,6.552l-2.619-1.935a5.015,5.015,0,0,1-8.771-1.341h12.847a8.356,8.356,0,0,0,0-3.276M119.831,40.7a5.015,5.015,0,0,1,4.739,3.375h-9.479a5.015,5.015,0,0,1,4.739-3.375" transform="translate(-86.566 -29.054)" fill="#004e9f"/>
      <path id="path12" d="M310.343,37.086a8.31,8.31,0,1,0,8.31,8.31,8.31,8.31,0,0,0-8.31-8.31m0,13.362A5.053,5.053,0,1,1,315.4,45.4a5.053,5.053,0,0,1-5.053,5.053" transform="translate(-234.364 -28.777)" fill="#004e9f"/>
      <rect id="rect14" width="3.26" height="16.539" transform="translate(86.332 28.335)" fill="#004e9f"/>
      <path id="path16" d="M167.152,133.423a8.231,8.231,0,1,0-1.449,6.52l-2.606-1.926a4.99,4.99,0,0,1-8.728-1.335h12.784a8.3,8.3,0,0,0,0-3.26m-8.067-3.359a4.991,4.991,0,0,1,4.716,3.359h-9.432a4.991,4.991,0,0,1,4.716-3.359" transform="translate(-117.057 -98.408)" fill="#004e9f"/>
      <path id="path18" d="M240.408,126.108a6.52,6.52,0,0,0-6.521,6.521v10.1h3.261v-10.1a3.26,3.26,0,1,1,6.52,0v10.1h3.261v-10.1a6.52,6.52,0,0,0-6.521-6.521" transform="translate(-181.485 -97.854)" fill="#004e9f"/>
      <path id="path20" d="M417.913,126.108a8.31,8.31,0,1,0,8.31,8.31,8.31,8.31,0,0,0-8.31-8.31m0,13.362a5.053,5.053,0,1,1,5.053-5.053,5.053,5.053,0,0,1-5.053,5.053" transform="translate(-317.833 -97.854)" fill="#004e9f"/>
      <path id="polygon22" d="M315.056,127.025l-4.711,11.836-4.712-11.837h-3.6l6.848,16.413h2.926l6.845-16.413Z" transform="translate(-234.364 -98.565)" fill="#004e9f"/>
      <path id="path24" d="M392.436,37.086v3.26a3.26,3.26,0,0,0-3.26,3.261v10.1h-3.261v-10.1a6.52,6.52,0,0,1,6.52-6.521" transform="translate(-299.452 -28.777)" fill="#004e9f"/>
      <path id="path26" d="M234.125,53.067v-.015a5.306,5.306,0,0,0-1.046-2.732l-.022-.029c-1.737-2.272-4.589-2.476-7.21-2.539a14.32,14.32,0,0,0,2.954-7.871A7.908,7.908,0,0,0,226.727,34a6.171,6.171,0,0,0-1.815-1.237,5.154,5.154,0,0,0-2.1-.456,5.272,5.272,0,0,0-3.936,1.585,7.22,7.22,0,0,0-1.753,3.567l-.011.044c0,.007,0,.013,0,.019a6.39,6.39,0,0,1-1.115,2.382l-.768,1.023-.247.3-.048.061c-.052.069-.113.14-.183.222s-.172.2-.269.326a23.855,23.855,0,0,1-2.215,2.266l-.026.023c-.834.765-1.75,1.544-2.552,2.2v3.673s3.241-2.4,4.586-3.63a27.082,27.082,0,0,0,2.521-2.577l.071-.088c.052-.07.113-.14.183-.222.084-.1.179-.21.281-.343l.249-.3,1.047-1.419a8.089,8.089,0,0,0,1.3-2.662q.073-.265.138-.547a4.63,4.63,0,0,1,.959-2.174,1.723,1.723,0,0,1,.46-.307,3.425,3.425,0,0,1,1.9-.223,2.864,2.864,0,0,1,1.2.638,5.021,5.021,0,0,1,1.188,3.675v.014c-.044,2.767-1.595,5.013-2.727,6.654l-.134.195a9.035,9.035,0,0,0-1.134,1.844l-.9,1.97,2.157.166c.383.029.756.044,1.118.058s.677.026,1,.051l.085,0c2.371.049,4.419.092,5.4,1.349a2.283,2.283,0,0,1,.464,1.16,4.391,4.391,0,0,1-.238,1.764,6.8,6.8,0,0,0-.29,3.536,5.077,5.077,0,0,1,0,1.572l0,.024a5.044,5.044,0,0,1-1.019,2.252,4.952,4.952,0,0,0-.629,1.107l-.031.084a4.9,4.9,0,0,0-.241,1.511,6.458,6.458,0,0,1-1.243,3.139,5.274,5.274,0,0,1-.895.956l-.066.05a4.864,4.864,0,0,0-.942.983l-.055.055-.086.131A14.868,14.868,0,0,1,222.578,74a7.314,7.314,0,0,1-2.919,1.452,9.666,9.666,0,0,1-.951.193,17.218,17.218,0,0,1-2.239.2,31.69,31.69,0,0,1-7.678-.933l-.023-.006a39.634,39.634,0,0,0-5.145-.9l-1.3-.007L151.1,74a.242.242,0,0,0-.014.484l52.32,2.542a36.975,36.975,0,0,1,4.665.828,34.742,34.742,0,0,0,8.4,1.021,19.819,19.819,0,0,0,2.646-.231l.014,0c.426-.061,1.2-.255,1.83-.42a8.266,8.266,0,0,0,2.142-.9c2.247-1.349,3.247-2.842,4.715-5.088l.171-.235a1.7,1.7,0,0,1,.327-.336,8.8,8.8,0,0,0,3.367-6.531,1.943,1.943,0,0,1,.072-.511,2.056,2.056,0,0,1,.223-.374,7.87,7.87,0,0,0,1.59-6.14l-.005-.033a3.836,3.836,0,0,1,.144-1.978l.008-.022a7.4,7.4,0,0,0,.411-3" transform="translate(-117.056 -25.061)" fill="#ffb30e"/>
    </g>
  </g>
</svg>
