<svg id="box" xmlns="http://www.w3.org/2000/svg" width="651" height="614" viewBox="0 0 651 614">
  <defs>
    <style>

      path{
        fill: #858585;
        fill-rule: evenodd;
      }
      .atv {
        fill: #0050dc;
      }
    </style>
  </defs>
  <path id="base" class="cls-1" d="M700,1095.81v-0.69l0.713-256.408-1.182-.68,1.186-.69v-1.37l1.182,0.68L1035.79,643l224.34,129.025,1.2-.7v1.389l1.19,0.68-1.19.69-0.71,257.086-0.59.35L926.485,1224.83v1.37l-1.182-.68-1.2.7v-1.39M1258.23,1029.8l0.71-254.336L1060.86,890.412,927.2,967.976l-0.493,177.154-0.214,76.95ZM924.106,1222.09l0.124-44.65,0.583-209.464L703.092,840.081l-0.705,254.359M1035.8,645.749L704.286,838.022,926.011,965.917,1257.77,773.4ZM698,1112.11l2.6,1.5" transform="translate(-624 -643)"/>

  <path id="A" class="" d="M666.5,1090.58h10V846.63h-10v-3h22.99v3h-10v243.95h10v3H666.5v-3ZM649.88,980.614H634.605l-2.528,7.309H624l13.793-38.413h8.957l13.794,38.413H652.41Zm-7.638-22.206-5.549,16.047h11.1Z" transform="translate(-624 -643)"/>

  <path id="L" class="" d="M694.853,1123.57l0.75-1.3,211.214,121.97,5-8.66,2.6,1.5L902.919,1257l-2.6-1.5,5-8.66L694.1,1124.87l-5,8.65-2.6-1.5,11.5-19.91,2.6,1.5Zm83.137,100.3h12.638v6.11H770.3V1191.6h7.7v32.27h0Z" transform="translate(-624 -643)"/>

  <path id="C" class="" d="M1272.4,1068.82l-5-8.66L945.389,1246.12l-0.749-1.3,5.747,9.96-2.6,1.5-11.494-19.92,2.6-1.5,5,8.66,322.01-185.96-4.99-8.66,2.6-1.5,11.49,19.92Zm-140.67,86.3c8.52,0,15.44,4.56,18.02,12.42h-8.84a9.669,9.669,0,0,0-9.24-5.49c-6.7,0-11.48,4.89-11.48,12.7,0,7.74,4.78,12.68,11.48,12.68a9.635,9.635,0,0,0,9.24-5.55h8.84c-2.58,7.92-9.5,12.43-18.02,12.43-11.05,0-19.45-8.09-19.45-19.56s8.4-19.63,19.44-19.63h0.01Z" transform="translate(-624 -643)" fill="#8c8c8c" />
</svg>
