<svg id="cilindro" xmlns="http://www.w3.org/2000/svg" width="662" height="364" viewBox="0 0 661.499 364.94">
  <defs>
    <style>
      path{
        fill: #858585;
        fill-rule: evenodd;
      }
      .atv {
        fill: #0050dc;
      }
    </style>
  </defs>
  <path id="Base" d="M1258.11,1637.19c-15.56,26.8-36.32,41.66-58.46,41.84h-443.8v-0.22c-0.146,0-.29.01-0.439,0.01H755.4c-22.017,0-42.625-14.6-58.031-41.12-31.767-54.66-31.767-143.65,0-198.37,15.633-26.93,36.448-41.77,58.616-41.8h0.068a49.233,49.233,0,0,1,6.754.47H1206.36c18.12,0,36.5,14.5,51.75,40.82C1289.96,1493.33,1289.97,1582.33,1258.11,1637.19ZM762.622,1400.58h-6.771v-0.46c-21.157.09-41.126,14.47-56.241,40.51-31.352,54-31.352,141.83,0,195.78,14.922,25.68,34.735,39.83,55.8,39.83h0.007c21.273,0,41.341-14.4,56.508-40.52,31.438-54.15,31.438-141.97,0-195.78C798.488,1416.95,781.18,1403.21,762.622,1400.58Zm493.258,39.54c-14.77-25.5-32.36-39.54-49.52-39.54H773.23c15.408,5.56,29.549,18.6,40.922,38.06,31.85,54.52,31.852,143.51,0,198.38-12.02,20.7-27.118,34.25-43.549,39.43H1199.64c21.18-.18,41.16-14.58,56.24-40.56,31.44-54.15,31.44-141.97,0-195.77h0Z" transform="translate(-620.531 -1397.53)"/>

  <path id="D" class="" d="M825.177,1539.81l3.187,0.85-6.542,24.45-3.188-.86,2.845-10.63-132.724-35.59-2.845,10.63-3.188-.85,6.544-24.45,3.188,0.86-2.845,10.63,132.72,35.59Zm-189.894,12.13H620.539v-42.22h14.744c13.475,0,22.237,8.35,22.237,21.17C657.52,1543.66,648.758,1551.94,635.283,1551.94Zm-0.3-35.08H629v27.88h5.981c8.883,0,13.9-5.08,13.9-13.85s-5.016-14.03-13.9-14.03h0Z" transform="translate(-620.531 -1397.53)"/>

  <path id="C" class="" d="M758.294,1704.24H1214.47v-11.01h3.29v25.31h-3.29v-11H758.294v11H755v-25.31h3.3v11.01h0Zm249.816,15.1c9.37,0,16.98,5.02,19.82,13.67h-9.73a10.624,10.624,0,0,0-10.15-6.05c-7.37,0-12.629,5.38-12.629,13.97,0,8.53,5.259,13.98,12.629,13.98a10.59,10.59,0,0,0,10.15-6.11h9.73c-2.84,8.71-10.45,13.67-19.82,13.67-12.145,0-21.39-8.89-21.39-21.54S995.965,1719.34,1008.11,1719.34Z" transform="translate(-620.531 -1397.53)"/>
</svg>
