<svg xmlns="http://www.w3.org/2000/svg" xmlns:xlink="http://www.w3.org/1999/xlink" width="904" height="498" viewBox="0 0 904 498">
  <defs>
    <clipPath id="clip-path">
      <rect id="Retângulo_40" data-name="Retângulo 40" width="904" height="498" transform="translate(8498 4344)" fill="#fff"/>
    </clipPath>
    <radialGradient id="radial-gradient" cx="0.615" cy="0.492" r="0.459" gradientTransform="matrix(0.494, 0.869, -1.112, 0.632, 0.809, -0.251)" gradientUnits="objectBoundingBox">
      <stop offset="0" stop-color="#dcc2b3"/>
      <stop offset="0.551" stop-color="#d7a485"/>
      <stop offset="1" stop-color="#a4775a"/>
    </radialGradient>
    <linearGradient id="linear-gradient" x1="0.5" x2="0.5" y2="1" gradientUnits="objectBoundingBox">
      <stop offset="0" stop-color="#a4775a"/>
      <stop offset="0.408" stop-color="#e3b294"/>
      <stop offset="1" stop-color="#a4775a"/>
    </linearGradient>
    <clipPath id="clip-path-2">
      <rect id="Retângulo_35" data-name="Retângulo 35" width="148.679" height="417.126" fill="none" stroke="#fff" stroke-width="4"/>
    </clipPath>
    <clipPath id="clip-path-3">
      <path id="Caminho_86" data-name="Caminho 86" d="M0,0,300.25.275l.058,62L.058,62Z" fill="#fff" stroke="#fff" stroke-width="1"/>
    </clipPath>
    <clipPath id="clip-path-4">
      <rect id="Retângulo_41" data-name="Retângulo 41" width="295" height="62" transform="translate(8411.342 3322.292)" fill="#fff" stroke="#9344c4" stroke-width="1"/>
    </clipPath>
  </defs>
  <g id="rolo_cilindro.4900daed" transform="translate(-8498 -4344)" clip-path="url(#clip-path)">
    <path id="Caminho_80" data-name="Caminho 80" d="M132.217,0c73.022,0,132.217,75.587,132.217,168.828S204.866,333.7,131.845,333.7,0,262.07,0,168.828,59.2,0,132.217,0Z" transform="matrix(0.996, 0.087, -0.087, 0.996, 9043.149, 4360.861)" fill="url(#radial-gradient)"/>
    <path id="Caminho_79" data-name="Caminho 79" d="M9152.99,4705.937s-120.528,5.517-122.65-157.452,130.715-175.7,130.715-175.7l-521.586-26.312s-107.8,18.674-107.8,157.027S8631.83,4639.73,8631.83,4639.73Z" fill="url(#linear-gradient)"/>
    <path id="Caminho_77" data-name="Caminho 77" d="M72.975-37.275A39.376,39.376,0,0,1,68.3-17.9,32.73,32.73,0,0,1,54.863-4.725Q46.095,0,34.23,0H6.2V-74.235H34.23q11.97,0,20.685,4.62A32.232,32.232,0,0,1,68.3-56.6,39.077,39.077,0,0,1,72.975-37.275Zm-40.32,21.21q10.5,0,16.327-5.565T54.81-37.275q0-10.08-5.827-15.645T32.655-58.485H24.15v42.42Z" transform="translate(9328.826 4577)" fill="#707070"/>
    <path id="Caminho_78" data-name="Caminho 78" d="M40.11-74.97q14.175,0,23.467,7.455T75.6-47.355H56.6a17.437,17.437,0,0,0-6.458-8.085A18.049,18.049,0,0,0,39.8-58.38a15.754,15.754,0,0,0-12.7,5.775Q22.26-46.83,22.26-37.17t4.83,15.383a15.815,15.815,0,0,0,12.7,5.722,18.049,18.049,0,0,0,10.342-2.94,17.513,17.513,0,0,0,6.458-7.98H75.6A34.3,34.3,0,0,1,63.578-6.878Q54.285.63,40.11.63A37.027,37.027,0,0,1,21.105-4.148,32.428,32.428,0,0,1,8.453-17.535,42.049,42.049,0,0,1,3.99-37.17,42.049,42.049,0,0,1,8.453-56.805,32.428,32.428,0,0,1,21.105-70.192,37.027,37.027,0,0,1,40.11-74.97Z" transform="translate(8808.826 4828)" fill="#707070"/>
    <g id="Grupo_57" data-name="Grupo 57" transform="translate(870 942)">
      <g id="Grupo_50" data-name="Grupo 50" transform="translate(-177.581 425.931) rotate(-3)">
        <g id="Grupo_46" data-name="Grupo 46" transform="translate(117 -289)">
          <g id="Grupo_de_máscara_2" data-name="Grupo de máscara 2" transform="translate(8050.917 3681.208) rotate(8)" clip-path="url(#clip-path-2)">
            <g id="Elipse_30" data-name="Elipse 30" transform="translate(19.273 30.286)" fill="none" stroke="#fff" stroke-width="4">
              <ellipse cx="128.717" cy="169.328" rx="128.717" ry="169.328" stroke="none"/>
              <ellipse cx="128.717" cy="169.328" rx="126.717" ry="167.328" fill="none"/>
            </g>
          </g>
          <g id="União_1" data-name="União 1" transform="translate(8283.127 4086.412) rotate(-172)" fill="none">
            <path d="M140.852,338.651c-.371,0-.749.005-1.122.005C62.559,338.656,0,262.845,0,169.328S62.559,0,139.731,0q5.066,0,10.037.43L655.739,20.718v.053q2.174-.122,4.366-.122c58.924,0,106.691,66.566,106.691,148.679S719.03,318.006,660.106,318.006a77.924,77.924,0,0,1-7.843-.4L147.744,338.382q-3.17.217-6.372.262l-.52.021Z" stroke="none"/>
            <path d="M 139.730712890625 334.6563110351563 C 140.0892028808594 334.6563110351563 140.4538116455078 334.6546020507813 140.8145141601563 334.6512145996094 L 141.23193359375 334.6472778320313 L 141.2617034912109 334.6460266113281 L 141.3161010742188 334.6453247070313 C 143.3619079589844 334.6168212890625 145.4326019287109 334.5315246582031 147.4705047607422 334.3919067382813 L 147.52490234375 334.3881225585938 L 147.5794067382813 334.3859252929688 L 652.098388671875 313.6138000488281 L 652.3826293945313 313.6021118164063 L 652.6655883789063 313.6307067871094 C 655.1271362304688 313.8798217773438 657.6304931640625 314.006103515625 660.106201171875 314.006103515625 C 666.9739990234375 314.006103515625 673.8392333984375 313.0414123535156 680.51123046875 311.1388244628906 C 687.034423828125 309.2787170410156 693.4581298828125 306.4987182617188 699.60400390625 302.876220703125 C 705.6702270507813 299.3006286621094 711.5285034179688 294.8681030273438 717.01611328125 289.7017211914063 C 722.4783935546875 284.5591125488281 727.6199951171875 278.6462097167969 732.298095703125 272.1270141601563 C 736.993408203125 265.5838012695313 741.259033203125 258.3781127929688 744.9765014648438 250.7101135253906 C 748.7388305664063 242.9493103027344 751.9716186523438 234.6484222412109 754.5850219726563 226.0381164550781 C 757.2509155273438 217.2548217773438 759.298828125 208.0603179931641 760.6716918945313 198.7102203369141 C 762.0819091796875 189.1070098876953 762.7969360351563 179.2212219238281 762.7969360351563 169.3274078369141 C 762.7969360351563 159.4336090087891 762.0819091796875 149.5478210449219 760.6718139648438 139.9447174072266 C 759.298828125 130.5945129394531 757.2509155273438 121.4001159667969 754.5850830078125 112.616813659668 C 751.9716796875 104.0065155029297 748.7388916015625 95.70561218261719 744.9765014648438 87.94481658935547 C 741.2590942382813 80.27681732177734 736.9935302734375 73.07111358642578 732.2982177734375 66.52791595458984 C 727.6201171875 60.00881576538086 722.478515625 54.0958137512207 717.0162353515625 48.95331573486328 C 711.5286254882813 43.78691482543945 705.6702880859375 39.35431289672852 699.6041259765625 35.77881622314453 C 693.4581909179688 32.15631484985352 687.0344848632813 29.37631416320801 680.5112915039063 27.51621437072754 C 673.8392944335938 25.61361503601074 666.97412109375 24.6489143371582 660.1063232421875 24.6489143371582 C 658.7285766601563 24.6489143371582 657.3350219726563 24.68791389465332 655.9644165039063 24.76491546630859 L 651.8427124023438 24.99641418457031 L 651.8320922851563 24.56489372253418 L 149.6078033447266 4.427014827728271 L 149.5163116455078 4.423314571380615 L 149.4251098632813 4.415514469146729 C 146.2221069335938 4.139814853668213 142.9604034423828 4.000014781951904 139.730712890625 4.000014781951904 C 130.5743103027344 4.000014781951904 121.4235076904297 5.11791467666626 112.5327072143555 7.322514533996582 C 103.859504699707 9.473214149475098 95.32470703125 12.68421459197998 87.16550445556641 16.86621475219727 C 79.13771057128906 20.98091506958008 71.39060974121094 26.07711410522461 64.13961029052734 32.0134162902832 C 56.94130706787109 37.90651321411133 50.16920852661133 44.67831420898438 44.01120758056641 52.1406135559082 C 37.84170532226563 59.61691284179688 32.23860549926758 67.84701538085938 27.35740661621094 76.6024169921875 C 22.42280769348145 85.45381164550781 18.18350791931152 94.91921234130859 14.75720691680908 104.7355117797852 C 11.26440715789795 114.7427139282227 8.581506729125977 125.2172164916992 6.783007144927979 135.8680114746094 C 4.936306953430176 146.8039093017578 4.000007152557373 158.0613098144531 4.000007152557373 169.3275146484375 C 4.000007152557373 180.5937194824219 4.936306953430176 191.8512115478516 6.783007144927979 202.787109375 C 8.581506729125977 213.4379119873047 11.26440715789795 223.9125213623047 14.75720691680908 233.9197082519531 C 18.18340682983398 243.7362213134766 22.42280769348145 253.2016143798828 27.35740661621094 262.0531005859375 C 32.23850631713867 270.8086242675781 37.84170532226563 279.038818359375 44.01120758056641 286.5151062011719 C 50.16910552978516 293.9776000976563 56.94130706787109 300.7494201660156 64.13961029052734 306.6426086425781 C 71.39060974121094 312.5789184570313 79.13760375976563 317.6753234863281 87.16550445556641 321.7900085449219 C 95.32470703125 325.9720153808594 103.8594055175781 329.1830139160156 112.5327072143555 331.3338012695313 C 121.4235076904297 333.5384216308594 130.5743103027344 334.6563110351563 139.730712890625 334.6563110351563 M 140.8520050048828 338.6663208007813 L 140.8522033691406 338.6510009765625 C 140.4808044433594 338.6545104980469 140.1028137207031 338.6563110351563 139.730712890625 338.6563110351563 C 62.55900573730469 338.6564025878906 6.98242183716502e-06 262.8451232910156 6.98242183716502e-06 169.3275146484375 C 6.98242183716502e-06 75.81001281738281 62.55910873413086 1.462402360630222e-05 139.730712890625 1.462402360630222e-05 C 143.10791015625 1.462402360630222e-05 146.4510040283203 0.1447146236896515 149.7681121826172 0.4302146136760712 L 655.7388305664063 20.71831512451172 L 655.7401123046875 20.77121543884277 C 657.1895141601563 20.68981552124023 658.6425170898438 20.6489143371582 660.1063232421875 20.6489143371582 C 719.0300903320313 20.6489143371582 766.7969360351563 87.21471405029297 766.7969360351563 169.3274078369141 C 766.7968139648438 251.4402160644531 719.030029296875 318.006103515625 660.106201171875 318.006103515625 C 657.4700317382813 318.006103515625 654.8511352539063 317.872314453125 652.2628784179688 317.6104125976563 L 147.7439117431641 338.3825073242188 C 145.6307067871094 338.5273132324219 143.5092010498047 338.6151123046875 141.3719024658203 338.6449279785156 L 140.8520050048828 338.6663208007813 Z" stroke="none" fill="#fff"/>
          </g>
        </g>
      </g>
    </g>
    <g id="Grupo_59" data-name="Grupo 59">
      <g id="Grupo_58" data-name="Grupo 58" transform="translate(8610.91 4673.052) rotate(6)">
        <path id="Caminho_62" data-name="Caminho 62" d="M0,0" transform="translate(0.037 0.783) rotate(90)" fill="none" stroke="#9344c4" stroke-linecap="round" stroke-width="4"/>
        <path id="Caminho_64" data-name="Caminho 64" d="M57.592,0,14.4,6.841,0,9.122" transform="translate(506.534 -9.154) rotate(93)" fill="none" stroke="#9344c4" stroke-linecap="round" stroke-width="4"/>
      </g>
      <path id="Caminho_81" data-name="Caminho 81" d="M57.592,0,14.4,6.841,0,9.122" transform="translate(8606.26 4654.878) rotate(98)" fill="none" stroke="#9344c4" stroke-linecap="round" stroke-width="4"/>
      <path id="Caminho_82" data-name="Caminho 82" d="M7731.056,3739.433l502.533,61.893" transform="translate(870 942)" fill="none" stroke="#9344c4" stroke-linecap="round" stroke-width="4"/>
    </g>
    <g id="Grupo_62" data-name="Grupo 62" transform="translate(-5.315)">
      <g id="Grupo_61" data-name="Grupo 61" transform="translate(9084.471 4509.413)">
        <g id="Grupo_60" data-name="Grupo 60" transform="matrix(0.996, 0.087, -0.087, 0.996, 3.668, 0)">
          <g id="Grupo_43" data-name="Grupo 43" transform="matrix(-0.985, 0.174, -0.174, -0.985, 238.609, -0.363)">
            <path id="Caminho_56" data-name="Caminho 56" d="M0,0,242.29.369" transform="translate(0)" fill="none" stroke="#fff" stroke-linecap="round" stroke-width="4"/>
          </g>
        </g>
      </g>
      <g id="Grupo_de_máscara_6" data-name="Grupo de máscara 6" transform="translate(9056.667 4517.589) rotate(-3)" clip-path="url(#clip-path-3)">
        <g id="Caminho_85" data-name="Caminho 85" transform="translate(45.636 -144.235) rotate(8)" fill="none">
          <path d="M123.963-.189c68.463-.1,123.852,71.561,123.715,160.07S191.93,320.224,123.467,320.328-.385,248.767-.248,160.258,55.5-.085,123.963-.189Z" stroke="none"/>
          <path d="M 124.112434387207 3.811126708984375 L 123.9693908691406 3.81121826171875 C 115.9035339355469 3.823516845703125 107.8402099609375 4.88653564453125 100.0034332275391 6.97076416015625 C 92.3519287109375 9.0057373046875 84.81889343261719 12.03915405273438 77.61357116699219 15.98663330078125 C 70.51548767089844 19.87542724609375 63.66207885742188 24.690673828125 57.24371337890625 30.298583984375 C 50.8651123046875 35.87176513671875 44.86102294921875 42.2755126953125 39.39825439453125 49.33197021484375 C 33.9210205078125 56.40695190429688 28.94389343261719 64.19509887695313 24.60498046875 72.47991943359375 C 20.21638488769531 80.85968017578125 16.44316101074219 89.82014465332031 13.39016723632813 99.11231994628906 C 10.27688598632813 108.5878295898438 7.881393432617188 118.5048675537109 6.270111083984375 128.5880432128906 C 4.615524291992188 138.9423675537109 3.768203735351563 149.5999145507813 3.751708984375 160.2645568847656 C 3.73248291015625 172.6744995117188 4.835113525390625 185.0249633789063 7.0289306640625 196.9728240966797 C 9.158889770507813 208.5726928710938 12.32861328125 219.8617248535156 16.45002746582031 230.5264587402344 C 20.4912109375 240.9834136962891 25.4578857421875 250.8701477050781 31.21211242675781 259.9119262695313 C 36.91897583007813 268.8792724609375 43.40638732910156 277.0254516601563 50.49407958984375 284.1241455078125 C 60.7431640625 294.3891296386719 72.10807800292969 302.3680419921875 84.27311706542969 307.8392639160156 C 96.79734802246094 313.4720458984375 109.933837890625 316.3280944824219 123.3176193237305 316.3280944824219 L 123.4606628417969 316.3280029296875 C 131.5265808105469 316.3157348632813 139.5898895263672 315.252685546875 147.4266662597656 313.16845703125 C 155.078125 311.1335144042969 162.6111602783203 308.1001281738281 169.8164825439453 304.1526489257813 C 176.9145812988281 300.2638244628906 183.7679748535156 295.4486083984375 190.1863403320313 289.8406982421875 C 196.56494140625 284.2675170898438 202.5690307617188 277.86376953125 208.0317993164063 270.8073120117188 C 213.509033203125 263.7323303222656 218.4861602783203 255.9441833496094 222.8250732421875 247.6593627929688 C 227.2136688232422 239.2796020507813 230.9868927001953 230.3191375732422 234.0398864746094 221.0269622802734 C 237.1531677246094 211.5514526367188 239.5486602783203 201.6344146728516 241.1599426269531 191.5512390136719 C 242.8145294189453 181.1969146728516 243.6618499755859 170.5393676757813 243.6783447265625 159.8747253417969 C 243.6975708007813 147.4647827148438 242.5949401855469 135.1143188476563 240.401123046875 123.1664123535156 C 238.2711639404297 111.5665893554688 235.1014404296875 100.2775115966797 230.9800262451172 89.61277770996094 C 226.9388427734375 79.15582275390625 221.97216796875 69.26908874511719 216.2179412841797 60.22732543945313 C 210.5110778808594 51.25994873046875 204.0236663818359 43.11376953125 196.9359741210938 36.01504516601563 C 186.6868896484375 25.75009155273438 175.3219909667969 17.77117919921875 163.1569366455078 12.29995727539063 C 150.6327056884766 6.66717529296875 137.4962158203125 3.811126708984375 124.112434387207 3.811126708984375 M 124.1124572753906 -0.188873291015625 C 192.5120239257813 -0.188873291015625 247.8153839111328 71.43206787109375 247.6783447265625 159.8809204101563 C 247.5412139892578 248.3891448974609 191.9297943115234 320.2237854003906 123.4667510986328 320.3280029296875 C 123.4207916259766 320.3280639648438 123.3635482788086 320.328125 123.3175964355469 320.328125 C 54.91807556152344 320.328125 -0.3853302001953125 248.7071838378906 -0.248291015625 160.2583618164063 C -0.1111602783203125 71.75013732910156 55.50025939941406 -0.084503173828125 123.9633026123047 -0.18878173828125 C 124.0092620849609 -0.1888427734375 124.0665054321289 -0.188873291015625 124.1124572753906 -0.188873291015625 Z" stroke="none" fill="#fff"/>
        </g>
      </g>
    </g>
    <g id="Grupo_63" data-name="Grupo 63" transform="translate(0 -4)">
      <g id="Grupo_61-2" data-name="Grupo 61">
        <g id="Grupo_60-2" data-name="Grupo 60" transform="matrix(0.996, 0.087, -0.087, 0.996, 9080.817, 4484.952)">
          <g id="Grupo_43-2" data-name="Grupo 43" transform="matrix(-0.985, 0.174, -0.174, -0.985, 247.839, 49.334)">
            <path id="Caminho_56-2" data-name="Caminho 56" d="M0,0H238.074" transform="translate(0 25.951)" fill="none" stroke="#9344c4" stroke-linecap="round" stroke-width="4"/>
          </g>
        </g>
      </g>
      <g id="Grupo_de_máscara_6-2" data-name="Grupo de máscara 6" transform="translate(482.977 1640.067) rotate(-3)" clip-path="url(#clip-path-4)">
        <g id="Elipse_32" data-name="Elipse 32" transform="translate(8456.312 3178.022) rotate(8)" fill="none" stroke="#9344c4" stroke-width="4">
          <ellipse cx="121.806" cy="160.237" rx="121.806" ry="160.237" stroke="none"/>
          <ellipse cx="121.806" cy="160.237" rx="119.806" ry="158.237" fill="none"/>
        </g>
      </g>
    </g>
  </g>
</svg>
