<svg id="whatsapp" xmlns="http://www.w3.org/2000/svg" width="75" height="75" viewBox="0 0 75 75">
  <circle id="Elipse_87" data-name="Elipse 87" cx="37.5" cy="37.5" r="37.5" fill="#f9efff"/>
  <path id="Caminho_206" data-name="Caminho 206" d="M22.908,59.565,24.773,51.5S14.483,26.117,40.435,21.46s21.44,25.415,21.44,25.415l-5.883,9.848-10.379,4.6L33.261,59.565l-8.489,1.243Z" transform="translate(-4.681 -4.313)" fill="#fff"/>
  <path id="iconmonstr-whatsapp-1" d="M.057,44.409l3.122-11.4a22,22,0,1,1,8.545,8.343L.057,44.409Zm12.207-7.044A18.247,18.247,0,1,0,7.188,32.43L5.34,39.18l6.924-1.815Zm21.07-10.111c-.137-.229-.5-.366-1.055-.642s-3.253-1.606-3.758-1.789-.87-.276-1.238.276-1.421,1.789-1.741,2.156-.642.413-1.192.137a15.008,15.008,0,0,1-4.422-2.729,16.552,16.552,0,0,1-3.059-3.81c-.32-.55-.033-.847.241-1.121.248-.246.55-.642.825-.964a3.607,3.607,0,0,0,.555-.916,1.011,1.011,0,0,0-.046-.964c-.139-.274-1.238-2.981-1.695-4.082-.448-1.071-.9-.927-1.238-.944l-1.055-.019a2.015,2.015,0,0,0-1.466.688,6.17,6.17,0,0,0-1.924,4.587c0,2.707,1.971,5.322,2.245,5.688s3.877,5.921,9.393,8.3a31.817,31.817,0,0,0,3.135,1.158,7.558,7.558,0,0,0,3.464.218c1.057-.157,3.253-1.33,3.712-2.615a4.581,4.581,0,0,0,.32-2.616Z" transform="translate(15.575 14.772)" fill="#9344c4"/>
</svg>
