<svg xmlns="http://www.w3.org/2000/svg" width="29.75" height="62.852" viewBox="0 0 29.75 62.852">
  <path id="seta-esquerda" d="M11.955,0C10.847,0,9.572,1.311,8.167,3.9a58.921,58.921,0,0,0-3.746,9.147A105.231,105.231,0,0,0,.083,31H0c.011.137.023.28.038.426q-.021.22-.038.426H.083A105.251,105.251,0,0,0,4.422,49.81a58.922,58.922,0,0,0,3.746,9.147c1.4,2.585,2.679,3.9,3.787,3.9,1.221,0,2.231-1.607,3-4.777A39.237,39.237,0,0,1,19.77,46.266a44.1,44.1,0,0,1,5.472-6.835,27.515,27.515,0,0,0,3.215-3.877,7.826,7.826,0,0,0,1.292-4.315c0-.079,0-.158,0-.237h-.023q0-.032,0-.065a7.446,7.446,0,0,0-1.278-4.216,25.029,25.029,0,0,0-3.181-3.667,40.237,40.237,0,0,1-5.479-6.567,37.479,37.479,0,0,1-4.83-11.708C14.186,1.607,13.177,0,11.956,0Z" transform="translate(29.75 62.852) rotate(180)" fill="#fff"/>
</svg>
