<svg xmlns="http://www.w3.org/2000/svg" width="29.75" height="124.852" viewBox="0 0 29.75 124.852">
  <path id="seta-menu-esquerda" d="M11.955,0C10.847,0,9.573,2.6,8.168,7.739,6.969,12.121,5.674,18.4,4.422,25.909,2.364,38.244.569,53.079.083,61.581H0c.011.273.023.556.038.847q-.021.437-.038.846H.083c.487,8.5,2.282,23.339,4.339,35.672,1.252,7.505,2.547,13.787,3.746,18.169,1.4,5.135,2.679,7.738,3.787,7.738,1.221,0,2.231-3.193,3-9.49a129.862,129.862,0,0,1,4.815-23.458,103.144,103.144,0,0,1,5.472-13.578,63.1,63.1,0,0,0,3.215-7.7,27.665,27.665,0,0,0,1.292-8.572c0-.157,0-.315,0-.47v0h-.023q0-.065,0-.129a26.226,26.226,0,0,0-1.278-8.374,55.37,55.37,0,0,0-3.182-7.283,91.092,91.092,0,0,1-5.479-13.046,123.5,123.5,0,0,1-4.83-23.257c-.77-6.3-1.779-9.491-3-9.491Z" transform="translate(29.75 124.852) rotate(180)" fill="#fafafa"/>
</svg>
