<svg xmlns="http://www.w3.org/2000/svg" width="29.75" height="124.852" viewBox="0 0 29.75 124.852">
  <path id="seta-direita-menu" d="M11.955,124.853c-1.108,0-2.382-2.6-3.787-7.739-1.2-4.382-2.494-10.664-3.746-18.169C2.364,86.608.569,71.774.083,63.272H0c.011-.273.023-.556.038-.847Q.016,61.989,0,61.579H.083c.487-8.5,2.282-23.339,4.339-35.672C5.674,18.4,6.969,12.12,8.168,7.738,9.573,2.6,10.847,0,11.955,0c1.221,0,2.231,3.193,3,9.49a129.864,129.864,0,0,0,4.815,23.458,103.145,103.145,0,0,0,5.472,13.578,63.1,63.1,0,0,1,3.215,7.7A27.666,27.666,0,0,1,29.75,62.8c0,.157,0,.315,0,.47v0h-.023q0,.065,0,.129a26.226,26.226,0,0,1-1.278,8.374,55.37,55.37,0,0,1-3.181,7.283A91.093,91.093,0,0,0,19.787,92.1a123.5,123.5,0,0,0-4.83,23.257c-.77,6.3-1.779,9.491-3,9.491Z" transform="translate(0 0)" fill="#2b2b2b"/>
</svg>
