<svg xmlns="http://www.w3.org/2000/svg" width="29.749" height="62.852" viewBox="0 0 29.749 62.852">
  <path id="seta-direita" d="M11.955,62.853c-1.108,0-2.382-1.311-3.787-3.9A58.921,58.921,0,0,1,4.422,49.81,105.231,105.231,0,0,1,.083,31.852H0c.011-.137.023-.28.038-.426Q.016,31.206,0,31H.083A105.251,105.251,0,0,1,4.422,13.042,58.922,58.922,0,0,1,8.168,3.9C9.573,1.311,10.847,0,11.955,0c1.221,0,2.231,1.607,3,4.777a39.237,39.237,0,0,0,4.815,11.809,44.1,44.1,0,0,0,5.472,6.836A27.515,27.515,0,0,1,28.457,27.3a7.826,7.826,0,0,1,1.292,4.315c0,.079,0,.158,0,.237h-.023q0,.032,0,.065a7.446,7.446,0,0,1-1.278,4.216A25.029,25.029,0,0,1,25.266,39.8a40.237,40.237,0,0,0-5.479,6.567,37.479,37.479,0,0,0-4.83,11.708c-.77,3.171-1.779,4.778-3,4.778Z" transform="translate(0 0)" fill="#2b2b2b"/>
</svg>
