<svg id="Camada_2" data-name="Camada 2" xmlns="http://www.w3.org/2000/svg" width="172.009" height="35.517" viewBox="0 0 172.009 35.517">
  <g id="Camada_1" data-name="Camada 1" transform="translate(0 0)">
    <path id="Caminho_1" data-name="Caminho 1" d="M33.957,13.714A17.136,17.136,0,0,0,20.631.386a17.314,17.314,0,0,0-6.912,0A17.142,17.142,0,0,0,.389,13.714a17.33,17.33,0,0,0,.094,7.344,17.021,17.021,0,0,0,5.86,9.375,17.507,17.507,0,0,0,2.637,1.786,17.06,17.06,0,0,0,5.632,1.9h0a2.841,2.841,0,1,0,.06-2.919,14.2,14.2,0,0,1-5.227-2.065,10.9,10.9,0,0,1,1.179-2.694,9.345,9.345,0,0,1,1.765-2.131,7.733,7.733,0,0,1,2.227-1.378,6.781,6.781,0,0,1,2.555-.5,7.118,7.118,0,0,1,4.538,1.683,9.084,9.084,0,0,1,1.735,1.907,10.627,10.627,0,0,1,1.232,2.443c.092.229.178.46.263.692-.165.1-.456.3-.65.41a1.288,1.288,0,0,0-.616,1.776,1.458,1.458,0,0,0,1.93.728l.131-.06h0A16.442,16.442,0,0,0,28,30.44a17.142,17.142,0,0,0,5.952-16.719ZM17.708,19.207a3.019,3.019,0,0,1-.522.048,2.869,2.869,0,0,1-.522-.048,3.125,3.125,0,0,1-1.838-1.042,3.063,3.063,0,0,1-.735-1.99h0a3.079,3.079,0,1,1,3.617,3.033Zm7.126,3.818A11.872,11.872,0,0,0,23.2,21.4a10.334,10.334,0,0,0-1.873-1.218,5.771,5.771,0,0,0-1.9-9.338h0a5.778,5.778,0,0,0-6.4,9.336A10.5,10.5,0,0,0,11.14,21.4,11.858,11.858,0,0,0,9.5,23.016a13.14,13.14,0,0,0-1.36,1.971A14.56,14.56,0,0,0,7.109,27.26a14.171,14.171,0,0,1-3.9-7.213,14.525,14.525,0,0,1-.289-2.88,14.251,14.251,0,1,1,26.052,7.978,14.424,14.424,0,0,1-1.745,2.115,14.751,14.751,0,0,0-1.039-2.266,13.354,13.354,0,0,0-1.358-1.971Z" transform="translate(-0.041 -0.037)" fill="#4de98a"/>
    <path id="Caminho_2" data-name="Caminho 2" d="M232.091,74.179a1.131,1.131,0,0,1-.11-1.866l.668-.808c.641-.78,1.254-.556,1.866-.139a5.968,5.968,0,0,0,3.452,1.225c.836,0,1.309-.307,1.309-.836,0-.668-.863-.975-1.754-1.28-2.486-.751-5.263-1.642-5.263-4.6,0-2.7,2.228-4.4,5.709-4.4a8.808,8.808,0,0,1,5.124,1.532c.641.558.751,1.065.083,1.893l-.584.724a1.243,1.243,0,0,1-1.776.224,4.633,4.633,0,0,0-2.784-.92c-.779,0-1.225.307-1.225.751,0,.7,1.28.92,3.035,1.561,2.283.888,3.983,2.033,3.983,4.455,0,2.813-2.4,4.483-5.875,4.483A9.279,9.279,0,0,1,232.091,74.179Z" transform="translate(-190.436 -50.57)" fill="#fff"/>
    <path id="Caminho_3" data-name="Caminho 3" d="M323.377,67.569v7.046a1.147,1.147,0,0,1-1.282,1.28h-1.142a1.15,1.15,0,0,1-1.252-1.28V74.5a6.651,6.651,0,0,1-4.457,1.754c-3.313,0-5.485-1.776-5.485-4.427,0-2.869,2.367-4.762,5.987-4.762a10.189,10.189,0,0,1,3.175.584v-.5c0-1.309-.92-2.088-2.536-2.088a6.252,6.252,0,0,0-3.118.808,1.056,1.056,0,0,1-1.616-.5l-.305-.639c-.474-.888-.25-1.394.334-1.754a10.118,10.118,0,0,1,5.041-1.365C320.091,61.61,323.377,63.086,323.377,67.569Zm-4.341,4.011V70.438a6.2,6.2,0,0,0-2.505-.613c-1.365,0-2.255.723-2.255,1.754s.863,1.7,2.2,1.7C317.97,73.278,319.036,72.333,319.036,71.58Z" transform="translate(-254.766 -50.677)" fill="#fff"/>
    <path id="Caminho_4" data-name="Caminho 4" d="M408.381,64.142l-5.346,11.639a1.98,1.98,0,0,1-1.811,1.282H401a2.044,2.044,0,0,1-1.809-1.282l-5.654-11.639c-.391-.779.167-1.282.975-1.282h2.255c.808,0,1.225.446,1.559,1.282l2.786,7.379,2.729-7.379c.305-.836.751-1.282,1.559-1.282h2C408.214,62.86,408.715,63.362,408.381,64.142Z" transform="translate(-323.564 -51.705)" fill="#fff"/>
    <path id="Caminho_5" data-name="Caminho 5" d="M489.911,72.832a5.106,5.106,0,0,0,2.979-1c.5-.391.918-.586,1.447-.028l.948.975a.886.886,0,0,1,.055,1.42c-1.254,1.337-3.787,2.06-5.987,2.06-4.455,0-7.713-3.006-7.713-7.351a7.148,7.148,0,0,1,7.491-7.3,7.346,7.346,0,0,1,5.263,1.978,7.161,7.161,0,0,1,2.031,5.039c0,.975-.25,1.337-1.28,1.337H486.29A3.345,3.345,0,0,0,489.911,72.832Zm-3.59-5.513h5.43a2.962,2.962,0,0,0-.779-1.616,2.648,2.648,0,0,0-1.953-.779A2.586,2.586,0,0,0,486.321,67.319Z" transform="translate(-396.127 -50.677)" fill="#fff"/>
    <path id="Caminho_6" data-name="Caminho 6" d="M578.24,48.6V31.728c0-.808.446-1.142,1.28-1.28L581.777,30c.834-.167,1.309.446,1.309,1.28V48.6a1.172,1.172,0,0,1-1.282,1.28H579.52A1.167,1.167,0,0,1,578.24,48.6Z" transform="translate(-475.574 -24.659)" fill="#fff"/>
    <path id="Caminho_7" data-name="Caminho 7" d="M627.751,72.832a5.1,5.1,0,0,0,2.979-1c.5-.391.92-.586,1.449-.028l.946.975a.886.886,0,0,1,.055,1.42c-1.243,1.337-3.787,2.06-5.987,2.06-4.455,0-7.713-3.006-7.713-7.351a7.149,7.149,0,0,1,7.491-7.3,7.34,7.34,0,0,1,5.263,1.978,7.163,7.163,0,0,1,2.033,5.039c0,.975-.25,1.337-1.28,1.337H624.13A3.346,3.346,0,0,0,627.751,72.832Zm-3.592-5.5h5.43a2.949,2.949,0,0,0-.779-1.616,2.644,2.644,0,0,0-1.953-.779,2.575,2.575,0,0,0-2.7,2.386Z" transform="translate(-509.492 -50.677)" fill="#fff"/>
    <path id="Caminho_8" data-name="Caminho 8" d="M723.927,67.569v7.046a1.146,1.146,0,0,1-1.28,1.28h-1.142a1.151,1.151,0,0,1-1.254-1.28V74.5a6.652,6.652,0,0,1-4.455,1.754c-3.315,0-5.487-1.776-5.487-4.427,0-2.869,2.367-4.762,5.987-4.762a10.18,10.18,0,0,1,3.175.584v-.5c0-1.309-.92-2.088-2.534-2.088a6.254,6.254,0,0,0-3.132.808,1.054,1.054,0,0,1-1.614-.5l-.307-.639c-.474-.888-.25-1.394.334-1.754a10.122,10.122,0,0,1,5.041-1.365C720.637,61.61,723.927,63.086,723.927,67.569Zm-4.343,4.011V70.438a6.2,6.2,0,0,0-2.507-.613c-1.364,0-2.255.723-2.255,1.754s.863,1.7,2.2,1.7c1.5,0,2.557-.945,2.557-1.7Z" transform="translate(-584.194 -50.677)" fill="#fff"/>
    <path id="Caminho_9" data-name="Caminho 9" d="M815.432,31.458V48.75a1.151,1.151,0,0,1-1.254,1.28H812.7a1.172,1.172,0,0,1-1.282-1.28v-.112a6.064,6.064,0,0,1-4.343,1.754,7,7,0,0,1-6.962-7.323,6.981,6.981,0,0,1,6.962-7.324,6.716,6.716,0,0,1,3.535.975V31.875c0-.808.446-1.142,1.254-1.28l2.283-.419C814.986,30.066,815.432,30.621,815.432,31.458Zm-4.6,11.612a2.967,2.967,0,0,0-2.979-3.2,3.2,3.2,0,0,0,0,6.392A2.952,2.952,0,0,0,810.836,43.07Z" transform="translate(-658.049 -24.813)" fill="#fff"/>
    <path id="Caminho_10" data-name="Caminho 10" d="M900.147,74.179a1.131,1.131,0,0,1-.112-1.866l.669-.808c.641-.78,1.254-.556,1.866-.139a5.968,5.968,0,0,0,3.452,1.225c.836,0,1.309-.307,1.309-.836,0-.668-.863-.975-1.754-1.28-2.477-.751-5.263-1.642-5.263-4.6,0-2.7,2.228-4.4,5.709-4.4a8.808,8.808,0,0,1,5.124,1.532c.641.558.751,1.065.083,1.893l-.584.724a1.243,1.243,0,0,1-1.776.224,4.632,4.632,0,0,0-2.784-.92c-.779,0-1.225.307-1.225.751,0,.7,1.28.92,3.035,1.561,2.283.888,3.983,2.033,3.983,4.455,0,2.813-2.4,4.483-5.875,4.483A9.287,9.287,0,0,1,900.147,74.179Z" transform="translate(-739.87 -50.57)" fill="#fff"/>
  </g>
</svg>
